<svg version="1.1" viewBox="0.0 0.0 931.0 575.0" fill="none" stroke="none" stroke-linecap="square" stroke-miterlimit="10" width="931" height="575" xmlns:xlink="http://www.w3.org/1999/xlink" xmlns="http://www.w3.org/2000/svg"><path fill="#ffffff" d="M0 0L931.0 0L931.0 575.0L0 575.0L0 0Z" fill-rule="nonzero"/><path stroke="#333333" stroke-width="1.0" stroke-linecap="butt" d="M59.5 486.5L902.5 486.5" fill-rule="nonzero"/><path stroke="#cccccc" stroke-width="1.0" stroke-linecap="butt" d="M59.5 350.5L902.5 350.5" fill-rule="nonzero"/><path stroke="#cccccc" stroke-width="1.0" stroke-linecap="butt" d="M59.5 215.5L902.5 215.5" fill-rule="nonzero"/><path stroke="#cccccc" stroke-width="1.0" stroke-linecap="butt" d="M59.5 79.5L902.5 79.5" fill-rule="nonzero"/><clipPath id="id_0"><path d="M59.75 79.916664L902.25 79.916664L902.25 486.25L59.75 486.25L59.75 79.916664Z" clip-rule="nonzero"/></clipPath><path stroke="#000000" stroke-width="2.0" stroke-linecap="butt" stroke-opacity="0.0" clip-path="url(#id_0)" d="M111.0 486.0L61.0 486.0L61.0 380.0C61.0 378.89542 61.89543 378.0 63.0 378.0L109.0 378.0C110.10457 378.0 111.0 378.89542 111.0 380.0Z" fill-rule="nonzero"/><path fill="#4285f4" clip-path="url(#id_0)" d="M111.0 486.0L61.0 486.0L61.0 380.0C61.0 378.89542 61.89543 378.0 63.0 378.0L109.0 378.0C110.10457 378.0 111.0 378.89542 111.0 380.0Z" fill-rule="nonzero"/><path stroke="#000000" stroke-width="2.0" stroke-linecap="butt" stroke-opacity="0.0" clip-path="url(#id_0)" d="M164.0 486.0L114.0 486.0L114.0 123.0C114.0 121.89543 114.89543 121.0 116.0 121.0L162.0 121.0C163.10457 121.0 164.0 121.89543 164.0 123.0Z" fill-rule="nonzero"/><path fill="#4285f4" clip-path="url(#id_0)" d="M164.0 486.0L114.0 486.0L114.0 123.0C114.0 121.89543 114.89543 121.0 116.0 121.0L162.0 121.0C163.10457 121.0 164.0 121.89543 164.0 123.0Z" fill-rule="nonzero"/><path stroke="#000000" stroke-width="2.0" stroke-linecap="butt" stroke-opacity="0.0" clip-path="url(#id_0)" d="M216.0 486.0L166.0 486.0L166.0 278.0C166.0 276.89542 166.89543 276.0 168.0 276.0L214.0 276.0C215.10457 276.0 216.0 276.89542 216.0 278.0Z" fill-rule="nonzero"/><path fill="#4285f4" clip-path="url(#id_0)" d="M216.0 486.0L166.0 486.0L166.0 278.0C166.0 276.89542 166.89543 276.0 168.0 276.0L214.0 276.0C215.10457 276.0 216.0 276.89542 216.0 278.0Z" fill-rule="nonzero"/><path stroke="#000000" stroke-width="2.0" stroke-linecap="butt" stroke-opacity="0.0" clip-path="url(#id_0)" d="M269.0 486.0L219.0 486.0L219.0 156.0C219.0 154.89543 219.89543 154.0 221.0 154.0L267.0 154.0C268.10458 154.0 269.0 154.89543 269.0 156.0Z" fill-rule="nonzero"/><path fill="#4285f4" clip-path="url(#id_0)" d="M269.0 486.0L219.0 486.0L219.0 156.0C219.0 154.89543 219.89543 154.0 221.0 154.0L267.0 154.0C268.10458 154.0 269.0 154.89543 269.0 156.0Z" fill-rule="nonzero"/><path stroke="#000000" stroke-width="2.0" stroke-linecap="butt" stroke-opacity="0.0" clip-path="url(#id_0)" d="M322.0 486.0L272.0 486.0L272.0 285.0C272.0 283.89542 272.89542 283.0 274.0 283.0L320.0 283.0C321.10458 283.0 322.0 283.89542 322.0 285.0Z" fill-rule="nonzero"/><path fill="#4285f4" clip-path="url(#id_0)" d="M322.0 486.0L272.0 486.0L272.0 285.0C272.0 283.89542 272.89542 283.0 274.0 283.0L320.0 283.0C321.10458 283.0 322.0 283.89542 322.0 285.0Z" fill-rule="nonzero"/><path stroke="#000000" stroke-width="2.0" stroke-linecap="butt" stroke-opacity="0.0" clip-path="url(#id_0)" d="M374.0 486.0L324.0 486.0L324.0 204.0C324.0 202.89543 324.89542 202.0 326.0 202.0L372.0 202.0C373.10458 202.0 374.0 202.89543 374.0 204.0Z" fill-rule="nonzero"/><path fill="#4285f4" clip-path="url(#id_0)" d="M374.0 486.0L324.0 486.0L324.0 204.0C324.0 202.89543 324.89542 202.0 326.0 202.0L372.0 202.0C373.10458 202.0 374.0 202.89543 374.0 204.0Z" fill-rule="nonzero"/><path stroke="#000000" stroke-width="2.0" stroke-linecap="butt" stroke-opacity="0.0" clip-path="url(#id_0)" d="M427.0 486.0L377.0 486.0L377.0 339.0C377.0 337.89542 377.89542 337.0 379.0 337.0L425.0 337.0C426.10458 337.0 427.0 337.89542 427.0 339.0Z" fill-rule="nonzero"/><path fill="#4285f4" clip-path="url(#id_0)" d="M427.0 486.0L377.0 486.0L377.0 339.0C377.0 337.89542 377.89542 337.0 379.0 337.0L425.0 337.0C426.10458 337.0 427.0 337.89542 427.0 339.0Z" fill-rule="nonzero"/><path stroke="#000000" stroke-width="2.0" stroke-linecap="butt" stroke-opacity="0.0" clip-path="url(#id_0)" d="M480.0 486.0L430.0 486.0L430.0 393.0C430.0 391.89542 430.89542 391.0 432.0 391.0L478.0 391.0C479.10458 391.0 480.0 391.89542 480.0 393.0Z" fill-rule="nonzero"/><path fill="#4285f4" clip-path="url(#id_0)" d="M480.0 486.0L430.0 486.0L430.0 393.0C430.0 391.89542 430.89542 391.0 432.0 391.0L478.0 391.0C479.10458 391.0 480.0 391.89542 480.0 393.0Z" fill-rule="nonzero"/><path stroke="#000000" stroke-width="2.0" stroke-linecap="butt" stroke-opacity="0.0" clip-path="url(#id_0)" d="M532.0 486.0L482.0 486.0L482.0 414.0C482.0 412.89542 482.89542 412.0 484.0 412.0L530.0 412.0C531.10455 412.0 532.0 412.89542 532.0 414.0Z" fill-rule="nonzero"/><path fill="#4285f4" clip-path="url(#id_0)" d="M532.0 486.0L482.0 486.0L482.0 414.0C482.0 412.89542 482.89542 412.0 484.0 412.0L530.0 412.0C531.10455 412.0 532.0 412.89542 532.0 414.0Z" fill-rule="nonzero"/><path stroke="#000000" stroke-width="2.0" stroke-linecap="butt" stroke-opacity="0.0" clip-path="url(#id_0)" d="M585.0 486.0L535.0 486.0L535.0 475.0C535.0 473.89542 535.89545 473.0 537.0 473.0L583.0 473.0C584.10455 473.0 585.0 473.89542 585.0 475.0Z" fill-rule="nonzero"/><path fill="#4285f4" clip-path="url(#id_0)" d="M585.0 486.0L535.0 486.0L535.0 475.0C535.0 473.89542 535.89545 473.0 537.0 473.0L583.0 473.0C584.10455 473.0 585.0 473.89542 585.0 475.0Z" fill-rule="nonzero"/><path stroke="#000000" stroke-width="2.0" stroke-linecap="butt" stroke-opacity="0.0" clip-path="url(#id_0)" d="M638.0 486.0L588.0 486.0L588.0 481.0C588.0 479.89542 588.89545 479.0 590.0 479.0L636.0 479.0C637.10455 479.0 638.0 479.89542 638.0 481.0Z" fill-rule="nonzero"/><path fill="#4285f4" clip-path="url(#id_0)" d="M638.0 486.0L588.0 486.0L588.0 481.0C588.0 479.89542 588.89545 479.0 590.0 479.0L636.0 479.0C637.10455 479.0 638.0 479.89542 638.0 481.0Z" fill-rule="nonzero"/><path stroke="#000000" stroke-width="2.0" stroke-linecap="butt" stroke-opacity="0.0" clip-path="url(#id_0)" d="M690.0 486.0L640.0 486.0L640.0 486.0L690.0 486.0Z" fill-rule="nonzero"/><path fill="#4285f4" clip-path="url(#id_0)" d="M690.0 486.0L640.0 486.0L640.0 486.0L690.0 486.0Z" fill-rule="nonzero"/><path stroke="#000000" stroke-width="2.0" stroke-linecap="butt" stroke-opacity="0.0" clip-path="url(#id_0)" d="M743.0 486.0L693.0 486.0L693.0 481.0C693.0 479.89542 693.89545 479.0 695.0 479.0L741.0 479.0C742.10455 479.0 743.0 479.89542 743.0 481.0Z" fill-rule="nonzero"/><path fill="#4285f4" clip-path="url(#id_0)" d="M743.0 486.0L693.0 486.0L693.0 481.0C693.0 479.89542 693.89545 479.0 695.0 479.0L741.0 479.0C742.10455 479.0 743.0 479.89542 743.0 481.0Z" fill-rule="nonzero"/><path stroke="#000000" stroke-width="2.0" stroke-linecap="butt" stroke-opacity="0.0" clip-path="url(#id_0)" d="M796.0 486.0L746.0 486.0L746.0 475.0C746.0 473.89542 746.89545 473.0 748.0 473.0L794.0 473.0C795.10455 473.0 796.0 473.89542 796.0 475.0Z" fill-rule="nonzero"/><path fill="#4285f4" clip-path="url(#id_0)" d="M796.0 486.0L746.0 486.0L746.0 475.0C746.0 473.89542 746.89545 473.0 748.0 473.0L794.0 473.0C795.10455 473.0 796.0 473.89542 796.0 475.0Z" fill-rule="nonzero"/><path stroke="#000000" stroke-width="2.0" stroke-linecap="butt" stroke-opacity="0.0" clip-path="url(#id_0)" d="M848.0 486.0L798.0 486.0L798.0 481.0C798.0 479.89542 798.89545 479.0 800.0 479.0L846.0 479.0C847.10455 479.0 848.0 479.89542 848.0 481.0Z" fill-rule="nonzero"/><path fill="#4285f4" clip-path="url(#id_0)" d="M848.0 486.0L798.0 486.0L798.0 481.0C798.0 479.89542 798.89545 479.0 800.0 479.0L846.0 479.0C847.10455 479.0 848.0 479.89542 848.0 481.0Z" fill-rule="nonzero"/><path stroke="#000000" stroke-width="2.0" stroke-linecap="butt" stroke-opacity="0.0" clip-path="url(#id_0)" d="M901.0 486.0L851.0 486.0L851.0 486.0L901.0 486.0Z" fill-rule="nonzero"/><path fill="#4285f4" clip-path="url(#id_0)" d="M901.0 486.0L851.0 486.0L851.0 486.0L901.0 486.0Z" fill-rule="nonzero"/><path fill="#000000" d="M468.48438 543.25L472.32812 533.2344L473.75 533.2344L477.85938 543.25L476.34375 543.25L475.17188 540.21875L470.98438 540.21875L469.89062 543.25L468.48438 543.25ZM471.375 539.1406L474.76562 539.1406L473.71875 536.3594Q473.25 535.09375 473.01562 534.28125Q472.82812 535.25 472.46875 536.1875L471.375 539.1406ZM478.20312 543.8594L479.39062 544.03125Q479.46875 544.5781 479.8125 544.84375Q480.26562 545.1719 481.0625 545.1719Q481.92188 545.1719 482.375 544.8281Q482.84375 544.5 483.01562 543.875Q483.10938 543.5 483.09375 542.2969Q482.29688 543.25 481.09375 543.25Q479.59375 543.25 478.76562 542.1719Q477.95312 541.09375 477.95312 539.5781Q477.95312 538.5469 478.32812 537.6719Q478.70312 536.78125 479.40625 536.3125Q480.125 535.8281 481.09375 535.8281Q482.375 535.8281 483.21875 536.8594L483.21875 535.9844L484.34375 535.9844L484.34375 542.2656Q484.34375 543.96875 484.0 544.6719Q483.65625 545.375 482.90625 545.78125Q482.15625 546.2031 481.0625 546.2031Q479.76562 546.2031 478.96875 545.6094Q478.17188 545.03125 478.20312 543.8594ZM479.21875 539.4844Q479.21875 540.9219 479.78125 541.5781Q480.34375 542.2344 481.20312 542.2344Q482.04688 542.2344 482.625 541.5781Q483.20312 540.9219 483.20312 539.53125Q483.20312 538.2031 482.60938 537.53125Q482.01562 536.84375 481.1875 536.84375Q480.35938 536.84375 479.78125 537.5156Q479.21875 538.1719 479.21875 539.4844ZM491.39062 540.90625L492.67188 541.0625Q492.35938 542.1875 491.54688 542.8125Q490.73438 543.4219 489.46875 543.4219Q487.875 543.4219 486.9375 542.4375Q486.01562 541.4531 486.01562 539.6875Q486.01562 537.84375 486.95312 536.84375Q487.90625 535.8281 489.40625 535.8281Q490.85938 535.8281 491.78125 536.8281Q492.70312 537.8125 492.70312 539.6094Q492.70312 539.71875 492.70312 539.9375L487.28125 539.9375Q487.35938 541.125 487.95312 541.7656Q488.5625 542.40625 489.48438 542.40625Q490.15625 542.40625 490.625 542.0469Q491.10938 541.6875 491.39062 540.90625ZM487.35938 538.9219L491.40625 538.9219Q491.32812 538.0 490.9375 537.5469Q490.35938 536.84375 489.42188 536.84375Q488.5625 536.84375 487.98438 537.40625Q487.42188 537.96875 487.35938 538.9219Z" fill-rule="nonzero"/><path fill="#000000" d="M45.328125 486.3125Q45.328125 484.53125 45.6875 483.45312Q46.0625 482.35938 46.78125 481.78125Q47.5 481.1875 48.59375 481.1875Q49.40625 481.1875 50.015625 481.51562Q50.625 481.84375 51.015625 482.45312Q51.421875 483.0625 51.640625 483.9375Q51.859375 484.8125 51.859375 486.3125Q51.859375 488.07812 51.5 489.15625Q51.140625 490.23438 50.421875 490.82812Q49.703125 491.42188 48.59375 491.42188Q47.15625 491.42188 46.328125 490.375Q45.328125 489.125 45.328125 486.3125ZM46.59375 486.3125Q46.59375 488.78125 47.171875 489.59375Q47.75 490.40625 48.59375 490.40625Q49.453125 490.40625 50.03125 489.59375Q50.609375 488.76562 50.609375 486.3125Q50.609375 483.82812 50.03125 483.01562Q49.453125 482.20312 48.578125 482.20312Q47.734375 482.20312 47.234375 482.92188Q46.59375 483.84375 46.59375 486.3125Z" fill-rule="nonzero"/><path fill="#000000" d="M43.796875 354.61804L43.796875 355.80554L37.171875 355.80554Q37.15625 355.36804 37.3125 354.94617Q37.578125 354.2743 38.125 353.61804Q38.6875 352.9618 39.734375 352.10242Q41.375 350.75867 41.9375 349.97742Q42.515625 349.19617 42.515625 348.49304Q42.515625 347.75867 41.984375 347.25867Q41.46875 346.75867 40.640625 346.75867Q39.75 346.75867 39.203125 347.28992Q38.671875 347.82117 38.671875 348.7743L37.40625 348.63367Q37.53125 347.22742 38.375 346.49304Q39.234375 345.74304 40.65625 345.74304Q42.109375 345.74304 42.9375 346.53992Q43.78125 347.3368 43.78125 348.5243Q43.78125 349.13367 43.53125 349.7118Q43.296875 350.28992 42.71875 350.93054Q42.15625 351.57117 40.828125 352.69617Q39.71875 353.61804 39.40625 353.9618Q39.09375 354.28992 38.890625 354.61804L43.796875 354.61804ZM45.328125 350.86804Q45.328125 349.0868 45.6875 348.00867Q46.0625 346.91492 46.78125 346.3368Q47.5 345.74304 48.59375 345.74304Q49.40625 345.74304 50.015625 346.07117Q50.625 346.3993 51.015625 347.00867Q51.421875 347.61804 51.640625 348.49304Q51.859375 349.36804 51.859375 350.86804Q51.859375 352.63367 51.5 353.7118Q51.140625 354.78992 50.421875 355.38367Q49.703125 355.97742 48.59375 355.97742Q47.15625 355.97742 46.328125 354.93054Q45.328125 353.68054 45.328125 350.86804ZM46.59375 350.86804Q46.59375 353.3368 47.171875 354.1493Q47.75 354.9618 48.59375 354.9618Q49.453125 354.9618 50.03125 354.1493Q50.609375 353.32117 50.609375 350.86804Q50.609375 348.38367 50.03125 347.57117Q49.453125 346.75867 48.578125 346.75867Q47.734375 346.75867 47.234375 347.47742Q46.59375 348.3993 46.59375 350.86804Z" fill-rule="nonzero"/><path fill="#000000" d="M41.28125 220.36111L41.28125 217.95486L36.921875 217.95486L36.921875 216.82986L41.5 210.34549L42.5 210.34549L42.5 216.82986L43.859375 216.82986L43.859375 217.95486L42.5 217.95486L42.5 220.36111L41.28125 220.36111ZM41.28125 216.82986L41.28125 212.31424L38.140625 216.82986L41.28125 216.82986ZM45.328125 215.42361Q45.328125 213.64236 45.6875 212.56424Q46.0625 211.47049 46.78125 210.89236Q47.5 210.29861 48.59375 210.29861Q49.40625 210.29861 50.015625 210.62674Q50.625 210.95486 51.015625 211.56424Q51.421875 212.17361 51.640625 213.04861Q51.859375 213.92361 51.859375 215.42361Q51.859375 217.18924 51.5 218.26736Q51.140625 219.34549 50.421875 219.93924Q49.703125 220.53299 48.59375 220.53299Q47.15625 220.53299 46.328125 219.48611Q45.328125 218.23611 45.328125 215.42361ZM46.59375 215.42361Q46.59375 217.89236 47.171875 218.70486Q47.75 219.51736 48.59375 219.51736Q49.453125 219.51736 50.03125 218.70486Q50.609375 217.87674 50.609375 215.42361Q50.609375 212.93924 50.03125 212.12674Q49.453125 211.31424 48.578125 211.31424Q47.734375 211.31424 47.234375 212.03299Q46.59375 212.95486 46.59375 215.42361Z" fill-rule="nonzero"/><path fill="#000000" d="M43.71875 77.354164L42.5 77.447914Q42.328125 76.71354 42.03125 76.385414Q41.53125 75.86979 40.796875 75.86979Q40.203125 75.86979 39.765625 76.197914Q39.1875 76.61979 38.84375 77.43229Q38.515625 78.24479 38.5 79.74479Q38.9375 79.072914 39.578125 78.74479Q40.234375 78.416664 40.9375 78.416664Q42.171875 78.416664 43.03125 79.322914Q43.890625 80.229164 43.890625 81.666664Q43.890625 82.604164 43.484375 83.416664Q43.078125 84.229164 42.359375 84.666664Q41.65625 85.08854 40.75 85.08854Q39.21875 85.08854 38.25 83.96354Q37.28125 82.822914 37.28125 80.229164Q37.28125 77.322914 38.34375 75.99479Q39.28125 74.854164 40.875 74.854164Q42.0625 74.854164 42.8125 75.52604Q43.5625 76.18229 43.71875 77.354164ZM38.6875 81.666664Q38.6875 82.30729 38.953125 82.885414Q39.234375 83.46354 39.71875 83.77604Q40.203125 84.072914 40.734375 84.072914Q41.515625 84.072914 42.078125 83.447914Q42.640625 82.822914 42.640625 81.74479Q42.640625 80.697914 42.078125 80.104164Q41.53125 79.49479 40.6875 79.49479Q39.859375 79.49479 39.265625 80.104164Q38.6875 80.697914 38.6875 81.666664ZM45.328125 79.979164Q45.328125 78.197914 45.6875 77.11979Q46.0625 76.02604 46.78125 75.447914Q47.5 74.854164 48.59375 74.854164Q49.40625 74.854164 50.015625 75.18229Q50.625 75.510414 51.015625 76.11979Q51.421875 76.729164 51.640625 77.604164Q51.859375 78.479164 51.859375 79.979164Q51.859375 81.74479 51.5 82.822914Q51.140625 83.90104 50.421875 84.49479Q49.703125 85.08854 48.59375 85.08854Q47.15625 85.08854 46.328125 84.041664Q45.328125 82.791664 45.328125 79.979164ZM46.59375 79.979164Q46.59375 82.447914 47.171875 83.260414Q47.75 84.072914 48.59375 84.072914Q49.453125 84.072914 50.03125 83.260414Q50.609375 82.43229 50.609375 79.979164Q50.609375 77.49479 50.03125 76.68229Q49.453125 75.86979 48.578125 75.86979Q47.734375 75.86979 47.234375 76.58854Q46.59375 77.510414 46.59375 79.979164Z" fill-rule="nonzero"/><path fill="#000000" d="M46.328125 501.3125Q46.328125 499.53125 46.6875 498.45312Q47.0625 497.35938 47.78125 496.78125Q48.5 496.1875 49.59375 496.1875Q50.40625 496.1875 51.015625 496.51562Q51.625 496.84375 52.015625 497.45312Q52.421875 498.0625 52.640625 498.9375Q52.859375 499.8125 52.859375 501.3125Q52.859375 503.07812 52.5 504.15625Q52.140625 505.23438 51.421875 505.82812Q50.703125 506.42188 49.59375 506.42188Q48.15625 506.42188 47.328125 505.375Q46.328125 504.125 46.328125 501.3125ZM47.59375 501.3125Q47.59375 503.78125 48.171875 504.59375Q48.75 505.40625 49.59375 505.40625Q50.453125 505.40625 51.03125 504.59375Q51.609375 503.76562 51.609375 501.3125Q51.609375 498.82812 51.03125 498.01562Q50.453125 497.20312 49.578125 497.20312Q48.734375 497.20312 48.234375 497.92188Q47.59375 498.84375 47.59375 501.3125ZM55.015625 506.25L55.015625 504.84375L56.421875 504.84375L56.421875 506.25L55.015625 506.25ZM58.328125 501.3125Q58.328125 499.53125 58.6875 498.45312Q59.0625 497.35938 59.78125 496.78125Q60.5 496.1875 61.59375 496.1875Q62.40625 496.1875 63.015625 496.51562Q63.625 496.84375 64.015625 497.45312Q64.421875 498.0625 64.640625 498.9375Q64.859375 499.8125 64.859375 501.3125Q64.859375 503.07812 64.5 504.15625Q64.140625 505.23438 63.421875 505.82812Q62.703125 506.42188 61.59375 506.42188Q60.15625 506.42188 59.328125 505.375Q58.328125 504.125 58.328125 501.3125ZM59.59375 501.3125Q59.59375 503.78125 60.171875 504.59375Q60.75 505.40625 61.59375 505.40625Q62.453125 505.40625 63.03125 504.59375Q63.609375 503.76562 63.609375 501.3125Q63.609375 498.82812 63.03125 498.01562Q62.453125 497.20312 61.578125 497.20312Q60.734375 497.20312 60.234375 497.92188Q59.59375 498.84375 59.59375 501.3125ZM66.328125 501.3125Q66.328125 499.53125 66.6875 498.45312Q67.0625 497.35938 67.78125 496.78125Q68.5 496.1875 69.59375 496.1875Q70.40625 496.1875 71.015625 496.51562Q71.625 496.84375 72.015625 497.45312Q72.421875 498.0625 72.640625 498.9375Q72.859375 499.8125 72.859375 501.3125Q72.859375 503.07812 72.5 504.15625Q72.140625 505.23438 71.421875 505.82812Q70.703125 506.42188 69.59375 506.42188Q68.15625 506.42188 67.328125 505.375Q66.328125 504.125 66.328125 501.3125ZM67.59375 501.3125Q67.59375 503.78125 68.171875 504.59375Q68.75 505.40625 69.59375 505.40625Q70.453125 505.40625 71.03125 504.59375Q71.609375 503.76562 71.609375 501.3125Q71.609375 498.82812 71.03125 498.01562Q70.453125 497.20312 69.578125 497.20312Q68.734375 497.20312 68.234375 497.92188Q67.59375 498.84375 67.59375 501.3125Z" fill-rule="nonzero"/><path fill="#000000" d="M103.625 506.25L102.390625 506.25L102.390625 498.40625Q101.953125 498.82812 101.21875 499.26562Q100.5 499.6875 99.9375 499.89062L99.9375 498.70312Q100.96875 498.21875 101.734375 497.53125Q102.515625 496.84375 102.828125 496.1875L103.625 496.1875L103.625 506.25ZM107.671875 506.25L107.671875 504.84375L109.078125 504.84375L109.078125 506.25L107.671875 506.25ZM110.984375 503.625L112.28125 503.51562Q112.421875 504.45312 112.9375 504.9375Q113.46875 505.40625 114.203125 505.40625Q115.09375 505.40625 115.703125 504.73438Q116.328125 504.0625 116.328125 502.96875Q116.328125 501.90625 115.734375 501.29688Q115.140625 500.6875 114.1875 500.6875Q113.59375 500.6875 113.109375 500.96875Q112.640625 501.23438 112.359375 501.65625L111.203125 501.51562L112.171875 496.35938L117.15625 496.35938L117.15625 497.54688L113.15625 497.54688L112.625 500.23438Q113.53125 499.60938 114.515625 499.60938Q115.828125 499.60938 116.71875 500.51562Q117.625 501.42188 117.625 502.85938Q117.625 504.21875 116.84375 505.20312Q115.875 506.42188 114.203125 506.42188Q112.84375 506.42188 111.96875 505.65625Q111.109375 504.89062 110.984375 503.625ZM125.375 498.6875L124.15625 498.78125Q123.984375 498.04688 123.6875 497.71875Q123.1875 497.20312 122.453125 497.20312Q121.859375 497.20312 121.421875 497.53125Q120.84375 497.95312 120.5 498.76562Q120.171875 499.57812 120.15625 501.07812Q120.59375 500.40625 121.234375 500.07812Q121.890625 499.75 122.59375 499.75Q123.828125 499.75 124.6875 500.65625Q125.546875 501.5625 125.546875 503.0Q125.546875 503.9375 125.140625 504.75Q124.734375 505.5625 124.015625 506.0Q123.3125 506.42188 122.40625 506.42188Q120.875 506.42188 119.90625 505.29688Q118.9375 504.15625 118.9375 501.5625Q118.9375 498.65625 120.0 497.32812Q120.9375 496.1875 122.53125 496.1875Q123.71875 496.1875 124.46875 496.85938Q125.21875 497.51562 125.375 498.6875ZM120.34375 503.0Q120.34375 503.64062 120.609375 504.21875Q120.890625 504.79688 121.375 505.10938Q121.859375 505.40625 122.390625 505.40625Q123.171875 505.40625 123.734375 504.78125Q124.296875 504.15625 124.296875 503.07812Q124.296875 502.03125 123.734375 501.4375Q123.1875 500.82812 122.34375 500.82812Q121.515625 500.82812 120.921875 501.4375Q120.34375 502.03125 120.34375 503.0Z" fill-rule="nonzero"/><path fill="#000000" d="M151.65625 503.60938L152.875 503.4375Q153.09375 504.48438 153.59375 504.95312Q154.10938 505.40625 154.84375 505.40625Q155.71875 505.40625 156.3125 504.8125Q156.90625 504.20312 156.90625 503.3125Q156.90625 502.46875 156.34375 501.92188Q155.79688 501.375 154.95312 501.375Q154.59375 501.375 154.07812 501.5L154.21875 500.42188Q154.34375 500.4375 154.40625 500.4375Q155.20312 500.4375 155.82812 500.03125Q156.45312 499.625 156.45312 498.76562Q156.45312 498.09375 156.0 497.65625Q155.54688 497.20312 154.8125 497.20312Q154.09375 497.20312 153.60938 497.65625Q153.14062 498.09375 153.0 499.0L151.78125 498.78125Q152.0 497.54688 152.79688 496.875Q153.59375 496.1875 154.78125 496.1875Q155.60938 496.1875 156.29688 496.54688Q156.98438 496.89062 157.34375 497.5Q157.71875 498.10938 157.71875 498.79688Q157.71875 499.4375 157.375 499.96875Q157.03125 500.5 156.34375 500.82812Q157.23438 501.03125 157.71875 501.67188Q158.21875 502.3125 158.21875 503.29688Q158.21875 504.60938 157.25 505.51562Q156.29688 506.42188 154.84375 506.42188Q153.51562 506.42188 152.64062 505.64062Q151.78125 504.85938 151.65625 503.60938ZM160.32812 506.25L160.32812 504.84375L161.73438 504.84375L161.73438 506.25L160.32812 506.25ZM168.28125 506.25L167.04688 506.25L167.04688 498.40625Q166.60938 498.82812 165.875 499.26562Q165.15625 499.6875 164.59375 499.89062L164.59375 498.70312Q165.625 498.21875 166.39062 497.53125Q167.17188 496.84375 167.48438 496.1875L168.28125 496.1875L168.28125 506.25ZM171.65625 503.60938L172.875 503.4375Q173.09375 504.48438 173.59375 504.95312Q174.10938 505.40625 174.84375 505.40625Q175.71875 505.40625 176.3125 504.8125Q176.90625 504.20312 176.90625 503.3125Q176.90625 502.46875 176.34375 501.92188Q175.79688 501.375 174.95312 501.375Q174.59375 501.375 174.07812 501.5L174.21875 500.42188Q174.34375 500.4375 174.40625 500.4375Q175.20312 500.4375 175.82812 500.03125Q176.45312 499.625 176.45312 498.76562Q176.45312 498.09375 176.0 497.65625Q175.54688 497.20312 174.8125 497.20312Q174.09375 497.20312 173.60938 497.65625Q173.14062 498.09375 173.0 499.0L171.78125 498.78125Q172.0 497.54688 172.79688 496.875Q173.59375 496.1875 174.78125 496.1875Q175.60938 496.1875 176.29688 496.54688Q176.98438 496.89062 177.34375 497.5Q177.71875 498.10938 177.71875 498.79688Q177.71875 499.4375 177.375 499.96875Q177.03125 500.5 176.34375 500.82812Q177.23438 501.03125 177.71875 501.67188Q178.21875 502.3125 178.21875 503.29688Q178.21875 504.60938 177.25 505.51562Q176.29688 506.42188 174.84375 506.42188Q173.51562 506.42188 172.64062 505.64062Q171.78125 504.85938 171.65625 503.60938Z" fill-rule="nonzero"/><path fill="#000000" d="M208.25 506.25L208.25 503.84375L203.89062 503.84375L203.89062 502.71875L208.46875 496.23438L209.46875 496.23438L209.46875 502.71875L210.82812 502.71875L210.82812 503.84375L209.46875 503.84375L209.46875 506.25L208.25 506.25ZM208.25 502.71875L208.25 498.20312L205.10938 502.71875L208.25 502.71875ZM212.98438 506.25L212.98438 504.84375L214.39062 504.84375L214.39062 506.25L212.98438 506.25ZM222.6875 498.6875L221.46875 498.78125Q221.29688 498.04688 221.0 497.71875Q220.5 497.20312 219.76562 497.20312Q219.17188 497.20312 218.73438 497.53125Q218.15625 497.95312 217.8125 498.76562Q217.48438 499.57812 217.46875 501.07812Q217.90625 500.40625 218.54688 500.07812Q219.20312 499.75 219.90625 499.75Q221.14062 499.75 222.0 500.65625Q222.85938 501.5625 222.85938 503.0Q222.85938 503.9375 222.45312 504.75Q222.04688 505.5625 221.32812 506.0Q220.625 506.42188 219.71875 506.42188Q218.1875 506.42188 217.21875 505.29688Q216.25 504.15625 216.25 501.5625Q216.25 498.65625 217.3125 497.32812Q218.25 496.1875 219.84375 496.1875Q221.03125 496.1875 221.78125 496.85938Q222.53125 497.51562 222.6875 498.6875ZM217.65625 503.0Q217.65625 503.64062 217.92188 504.21875Q218.20312 504.79688 218.6875 505.10938Q219.17188 505.40625 219.70312 505.40625Q220.48438 505.40625 221.04688 504.78125Q221.60938 504.15625 221.60938 503.07812Q221.60938 502.03125 221.04688 501.4375Q220.5 500.82812 219.65625 500.82812Q218.82812 500.82812 218.23438 501.4375Q217.65625 502.03125 217.65625 503.0ZM224.48438 503.9375L225.67188 503.82812Q225.8125 504.65625 226.23438 505.03125Q226.67188 505.40625 227.32812 505.40625Q227.89062 505.40625 228.3125 505.15625Q228.75 504.89062 229.01562 504.45312Q229.29688 504.01562 229.48438 503.28125Q229.67188 502.54688 229.67188 501.78125Q229.67188 501.70312 229.65625 501.53125Q229.29688 502.125 228.65625 502.5Q228.01562 502.85938 227.26562 502.85938Q226.01562 502.85938 225.15625 501.95312Q224.29688 501.04688 224.29688 499.57812Q224.29688 498.04688 225.1875 497.125Q226.09375 496.1875 227.45312 496.1875Q228.42188 496.1875 229.23438 496.71875Q230.04688 497.23438 230.46875 498.21875Q230.89062 499.1875 230.89062 501.03125Q230.89062 502.95312 230.46875 504.09375Q230.0625 505.23438 229.23438 505.82812Q228.40625 506.42188 227.29688 506.42188Q226.125 506.42188 225.375 505.76562Q224.64062 505.10938 224.48438 503.9375ZM229.51562 499.51562Q229.51562 498.45312 228.95312 497.82812Q228.39062 497.20312 227.60938 497.20312Q226.78125 497.20312 226.17188 497.875Q225.5625 498.54688 225.5625 499.60938Q225.5625 500.5625 226.14062 501.17188Q226.71875 501.76562 227.5625 501.76562Q228.42188 501.76562 228.96875 501.17188Q229.51562 500.5625 229.51562 499.51562Z" fill-rule="nonzero"/><path fill="#000000" d="M263.34375 498.6875L262.125 498.78125Q261.95312 498.04688 261.65625 497.71875Q261.15625 497.20312 260.42188 497.20312Q259.82812 497.20312 259.39062 497.53125Q258.8125 497.95312 258.46875 498.76562Q258.14062 499.57812 258.125 501.07812Q258.5625 500.40625 259.20312 500.07812Q259.85938 499.75 260.5625 499.75Q261.79688 499.75 262.65625 500.65625Q263.51562 501.5625 263.51562 503.0Q263.51562 503.9375 263.10938 504.75Q262.70312 505.5625 261.98438 506.0Q261.28125 506.42188 260.375 506.42188Q258.84375 506.42188 257.875 505.29688Q256.90625 504.15625 256.90625 501.5625Q256.90625 498.65625 257.96875 497.32812Q258.90625 496.1875 260.5 496.1875Q261.6875 496.1875 262.4375 496.85938Q263.1875 497.51562 263.34375 498.6875ZM258.3125 503.0Q258.3125 503.64062 258.57812 504.21875Q258.85938 504.79688 259.34375 505.10938Q259.82812 505.40625 260.35938 505.40625Q261.14062 505.40625 261.70312 504.78125Q262.26562 504.15625 262.26562 503.07812Q262.26562 502.03125 261.70312 501.4375Q261.15625 500.82812 260.3125 500.82812Q259.48438 500.82812 258.89062 501.4375Q258.3125 502.03125 258.3125 503.0ZM265.64062 506.25L265.64062 504.84375L267.04688 504.84375L267.04688 506.25L265.64062 506.25ZM275.42188 505.0625L275.42188 506.25L268.79688 506.25Q268.78125 505.8125 268.9375 505.39062Q269.20312 504.71875 269.75 504.0625Q270.3125 503.40625 271.35938 502.54688Q273.0 501.20312 273.5625 500.42188Q274.14062 499.64062 274.14062 498.9375Q274.14062 498.20312 273.60938 497.70312Q273.09375 497.20312 272.26562 497.20312Q271.375 497.20312 270.82812 497.73438Q270.29688 498.26562 270.29688 499.21875L269.03125 499.07812Q269.15625 497.67188 270.0 496.9375Q270.85938 496.1875 272.28125 496.1875Q273.73438 496.1875 274.5625 496.98438Q275.40625 497.78125 275.40625 498.96875Q275.40625 499.57812 275.15625 500.15625Q274.92188 500.73438 274.34375 501.375Q273.78125 502.01562 272.45312 503.14062Q271.34375 504.0625 271.03125 504.40625Q270.71875 504.73438 270.51562 505.0625L275.42188 505.0625ZM276.95312 503.625L278.25 503.51562Q278.39062 504.45312 278.90625 504.9375Q279.4375 505.40625 280.17188 505.40625Q281.0625 505.40625 281.67188 504.73438Q282.29688 504.0625 282.29688 502.96875Q282.29688 501.90625 281.70312 501.29688Q281.10938 500.6875 280.15625 500.6875Q279.5625 500.6875 279.07812 500.96875Q278.60938 501.23438 278.32812 501.65625L277.17188 501.51562L278.14062 496.35938L283.125 496.35938L283.125 497.54688L279.125 497.54688L278.59375 500.23438Q279.5 499.60938 280.48438 499.60938Q281.79688 499.60938 282.6875 500.51562Q283.59375 501.42188 283.59375 502.85938Q283.59375 504.21875 282.8125 505.20312Q281.84375 506.42188 280.17188 506.42188Q278.8125 506.42188 277.9375 505.65625Q277.07812 504.89062 276.95312 503.625Z" fill-rule="nonzero"/><path fill="#000000" d="M309.6875 497.54688L309.6875 496.35938L316.1875 496.35938L316.1875 497.3125Q315.21875 498.32812 314.28125 500.01562Q313.34375 501.70312 312.82812 503.5Q312.46875 504.75 312.35938 506.25L311.09375 506.25Q311.10938 505.0625 311.54688 503.39062Q312.0 501.71875 312.82812 500.17188Q313.67188 498.60938 314.60938 497.54688L309.6875 497.54688ZM318.29688 506.25L318.29688 504.84375L319.70312 504.84375L319.70312 506.25L318.29688 506.25ZM323.5 500.8125Q322.73438 500.53125 322.35938 500.01562Q322.0 499.5 322.0 498.76562Q322.0 497.67188 322.78125 496.9375Q323.57812 496.1875 324.875 496.1875Q326.1875 496.1875 326.98438 496.95312Q327.79688 497.71875 327.79688 498.8125Q327.79688 499.5 327.42188 500.01562Q327.0625 500.53125 326.3125 500.8125Q327.23438 501.10938 327.71875 501.78125Q328.20312 502.45312 328.20312 503.39062Q328.20312 504.67188 327.29688 505.54688Q326.39062 506.42188 324.90625 506.42188Q323.42188 506.42188 322.5 505.54688Q321.59375 504.65625 321.59375 503.34375Q321.59375 502.375 322.09375 501.71875Q322.59375 501.04688 323.5 500.8125ZM323.26562 498.73438Q323.26562 499.4375 323.71875 499.89062Q324.17188 500.34375 324.90625 500.34375Q325.625 500.34375 326.07812 499.90625Q326.53125 499.45312 326.53125 498.79688Q326.53125 498.125 326.0625 497.67188Q325.59375 497.20312 324.89062 497.20312Q324.1875 497.20312 323.71875 497.65625Q323.26562 498.09375 323.26562 498.73438ZM322.85938 503.35938Q322.85938 503.89062 323.10938 504.39062Q323.35938 504.875 323.84375 505.14062Q324.34375 505.40625 324.92188 505.40625Q325.79688 505.40625 326.35938 504.84375Q326.9375 504.28125 326.9375 503.40625Q326.9375 502.51562 326.34375 501.9375Q325.76562 501.34375 324.875 501.34375Q324.0 501.34375 323.42188 501.92188Q322.85938 502.5 322.85938 503.35938ZM334.25 506.25L333.01562 506.25L333.01562 498.40625Q332.57812 498.82812 331.84375 499.26562Q331.125 499.6875 330.5625 499.89062L330.5625 498.70312Q331.59375 498.21875 332.35938 497.53125Q333.14062 496.84375 333.45312 496.1875L334.25 496.1875L334.25 506.25Z" fill-rule="nonzero"/><path fill="#000000" d="M362.45312 503.9375L363.64062 503.82812Q363.78125 504.65625 364.20312 505.03125Q364.64062 505.40625 365.29688 505.40625Q365.85938 505.40625 366.28125 505.15625Q366.71875 504.89062 366.98438 504.45312Q367.26562 504.01562 367.45312 503.28125Q367.64062 502.54688 367.64062 501.78125Q367.64062 501.70312 367.625 501.53125Q367.26562 502.125 366.625 502.5Q365.98438 502.85938 365.23438 502.85938Q363.98438 502.85938 363.125 501.95312Q362.26562 501.04688 362.26562 499.57812Q362.26562 498.04688 363.15625 497.125Q364.0625 496.1875 365.42188 496.1875Q366.39062 496.1875 367.20312 496.71875Q368.01562 497.23438 368.4375 498.21875Q368.85938 499.1875 368.85938 501.03125Q368.85938 502.95312 368.4375 504.09375Q368.03125 505.23438 367.20312 505.82812Q366.375 506.42188 365.26562 506.42188Q364.09375 506.42188 363.34375 505.76562Q362.60938 505.10938 362.45312 503.9375ZM367.48438 499.51562Q367.48438 498.45312 366.92188 497.82812Q366.35938 497.20312 365.57812 497.20312Q364.75 497.20312 364.14062 497.875Q363.53125 498.54688 363.53125 499.60938Q363.53125 500.5625 364.10938 501.17188Q364.6875 501.76562 365.53125 501.76562Q366.39062 501.76562 366.9375 501.17188Q367.48438 500.5625 367.48438 499.51562ZM370.95312 506.25L370.95312 504.84375L372.35938 504.84375L372.35938 506.25L370.95312 506.25ZM374.28125 503.60938L375.5 503.4375Q375.71875 504.48438 376.21875 504.95312Q376.73438 505.40625 377.46875 505.40625Q378.34375 505.40625 378.9375 504.8125Q379.53125 504.20312 379.53125 503.3125Q379.53125 502.46875 378.96875 501.92188Q378.42188 501.375 377.57812 501.375Q377.21875 501.375 376.70312 501.5L376.84375 500.42188Q376.96875 500.4375 377.03125 500.4375Q377.82812 500.4375 378.45312 500.03125Q379.07812 499.625 379.07812 498.76562Q379.07812 498.09375 378.625 497.65625Q378.17188 497.20312 377.4375 497.20312Q376.71875 497.20312 376.23438 497.65625Q375.76562 498.09375 375.625 499.0L374.40625 498.78125Q374.625 497.54688 375.42188 496.875Q376.21875 496.1875 377.40625 496.1875Q378.23438 496.1875 378.92188 496.54688Q379.60938 496.89062 379.96875 497.5Q380.34375 498.10938 380.34375 498.79688Q380.34375 499.4375 380.0 499.96875Q379.65625 500.5 378.96875 500.82812Q379.85938 501.03125 380.34375 501.67188Q380.84375 502.3125 380.84375 503.29688Q380.84375 504.60938 379.875 505.51562Q378.92188 506.42188 377.46875 506.42188Q376.14062 506.42188 375.26562 505.64062Q374.40625 504.85938 374.28125 503.60938ZM384.15625 500.8125Q383.39062 500.53125 383.01562 500.01562Q382.65625 499.5 382.65625 498.76562Q382.65625 497.67188 383.4375 496.9375Q384.23438 496.1875 385.53125 496.1875Q386.84375 496.1875 387.64062 496.95312Q388.45312 497.71875 388.45312 498.8125Q388.45312 499.5 388.07812 500.01562Q387.71875 500.53125 386.96875 500.8125Q387.89062 501.10938 388.375 501.78125Q388.85938 502.45312 388.85938 503.39062Q388.85938 504.67188 387.95312 505.54688Q387.04688 506.42188 385.5625 506.42188Q384.07812 506.42188 383.15625 505.54688Q382.25 504.65625 382.25 503.34375Q382.25 502.375 382.75 501.71875Q383.25 501.04688 384.15625 500.8125ZM383.92188 498.73438Q383.92188 499.4375 384.375 499.89062Q384.82812 500.34375 385.5625 500.34375Q386.28125 500.34375 386.73438 499.90625Q387.1875 499.45312 387.1875 498.79688Q387.1875 498.125 386.71875 497.67188Q386.25 497.20312 385.54688 497.20312Q384.84375 497.20312 384.375 497.65625Q383.92188 498.09375 383.92188 498.73438ZM383.51562 503.35938Q383.51562 503.89062 383.76562 504.39062Q384.01562 504.875 384.5 505.14062Q385.0 505.40625 385.57812 505.40625Q386.45312 505.40625 387.01562 504.84375Q387.59375 504.28125 387.59375 503.40625Q387.59375 502.51562 387.0 501.9375Q386.42188 501.34375 385.53125 501.34375Q384.65625 501.34375 384.07812 501.92188Q383.51562 502.5 383.51562 503.35938Z" fill-rule="nonzero"/><path fill="#000000" d="M415.5625 506.25L414.32812 506.25L414.32812 498.40625Q413.89062 498.82812 413.15625 499.26562Q412.4375 499.6875 411.875 499.89062L411.875 498.70312Q412.90625 498.21875 413.67188 497.53125Q414.45312 496.84375 414.76562 496.1875L415.5625 496.1875L415.5625 506.25ZM418.92188 501.3125Q418.92188 499.53125 419.28125 498.45312Q419.65625 497.35938 420.375 496.78125Q421.09375 496.1875 422.1875 496.1875Q423.0 496.1875 423.60938 496.51562Q424.21875 496.84375 424.60938 497.45312Q425.01562 498.0625 425.23438 498.9375Q425.45312 499.8125 425.45312 501.3125Q425.45312 503.07812 425.09375 504.15625Q424.73438 505.23438 424.01562 505.82812Q423.29688 506.42188 422.1875 506.42188Q420.75 506.42188 419.92188 505.375Q418.92188 504.125 418.92188 501.3125ZM420.1875 501.3125Q420.1875 503.78125 420.76562 504.59375Q421.34375 505.40625 422.1875 505.40625Q423.04688 505.40625 423.625 504.59375Q424.20312 503.76562 424.20312 501.3125Q424.20312 498.82812 423.625 498.01562Q423.04688 497.20312 422.17188 497.20312Q421.32812 497.20312 420.82812 497.92188Q420.1875 498.84375 420.1875 501.3125ZM427.60938 506.25L427.60938 504.84375L429.01562 504.84375L429.01562 506.25L427.60938 506.25ZM431.10938 503.9375L432.29688 503.82812Q432.4375 504.65625 432.85938 505.03125Q433.29688 505.40625 433.95312 505.40625Q434.51562 505.40625 434.9375 505.15625Q435.375 504.89062 435.64062 504.45312Q435.92188 504.01562 436.10938 503.28125Q436.29688 502.54688 436.29688 501.78125Q436.29688 501.70312 436.28125 501.53125Q435.92188 502.125 435.28125 502.5Q434.64062 502.85938 433.89062 502.85938Q432.64062 502.85938 431.78125 501.95312Q430.92188 501.04688 430.92188 499.57812Q430.92188 498.04688 431.8125 497.125Q432.71875 496.1875 434.07812 496.1875Q435.04688 496.1875 435.85938 496.71875Q436.67188 497.23438 437.09375 498.21875Q437.51562 499.1875 437.51562 501.03125Q437.51562 502.95312 437.09375 504.09375Q436.6875 505.23438 435.85938 505.82812Q435.03125 506.42188 433.92188 506.42188Q432.75 506.42188 432.0 505.76562Q431.26562 505.10938 431.10938 503.9375ZM436.14062 499.51562Q436.14062 498.45312 435.57812 497.82812Q435.01562 497.20312 434.23438 497.20312Q433.40625 497.20312 432.79688 497.875Q432.1875 498.54688 432.1875 499.60938Q432.1875 500.5625 432.76562 501.17188Q433.34375 501.76562 434.1875 501.76562Q435.04688 501.76562 435.59375 501.17188Q436.14062 500.5625 436.14062 499.51562ZM442.875 506.25L442.875 503.84375L438.51562 503.84375L438.51562 502.71875L443.09375 496.23438L444.09375 496.23438L444.09375 502.71875L445.45312 502.71875L445.45312 503.84375L444.09375 503.84375L444.09375 506.25L442.875 506.25ZM442.875 502.71875L442.875 498.20312L439.73438 502.71875L442.875 502.71875Z" fill-rule="nonzero"/><path fill="#000000" d="M468.21875 506.25L466.98438 506.25L466.98438 498.40625Q466.54688 498.82812 465.8125 499.26562Q465.09375 499.6875 464.53125 499.89062L464.53125 498.70312Q465.5625 498.21875 466.32812 497.53125Q467.10938 496.84375 467.42188 496.1875L468.21875 496.1875L468.21875 506.25ZM478.04688 505.0625L478.04688 506.25L471.42188 506.25Q471.40625 505.8125 471.5625 505.39062Q471.82812 504.71875 472.375 504.0625Q472.9375 503.40625 473.98438 502.54688Q475.625 501.20312 476.1875 500.42188Q476.76562 499.64062 476.76562 498.9375Q476.76562 498.20312 476.23438 497.70312Q475.71875 497.20312 474.89062 497.20312Q474.0 497.20312 473.45312 497.73438Q472.92188 498.26562 472.92188 499.21875L471.65625 499.07812Q471.78125 497.67188 472.625 496.9375Q473.48438 496.1875 474.90625 496.1875Q476.35938 496.1875 477.1875 496.98438Q478.03125 497.78125 478.03125 498.96875Q478.03125 499.57812 477.78125 500.15625Q477.54688 500.73438 476.96875 501.375Q476.40625 502.01562 475.07812 503.14062Q473.96875 504.0625 473.65625 504.40625Q473.34375 504.73438 473.14062 505.0625L478.04688 505.0625ZM480.26562 506.25L480.26562 504.84375L481.67188 504.84375L481.67188 506.25L480.26562 506.25ZM483.57812 503.625L484.875 503.51562Q485.01562 504.45312 485.53125 504.9375Q486.0625 505.40625 486.79688 505.40625Q487.6875 505.40625 488.29688 504.73438Q488.92188 504.0625 488.92188 502.96875Q488.92188 501.90625 488.32812 501.29688Q487.73438 500.6875 486.78125 500.6875Q486.1875 500.6875 485.70312 500.96875Q485.23438 501.23438 484.95312 501.65625L483.79688 501.51562L484.76562 496.35938L489.75 496.35938L489.75 497.54688L485.75 497.54688L485.21875 500.23438Q486.125 499.60938 487.10938 499.60938Q488.42188 499.60938 489.3125 500.51562Q490.21875 501.42188 490.21875 502.85938Q490.21875 504.21875 489.4375 505.20312Q488.46875 506.42188 486.79688 506.42188Q485.4375 506.42188 484.5625 505.65625Q483.70312 504.89062 483.57812 503.625ZM491.57812 501.3125Q491.57812 499.53125 491.9375 498.45312Q492.3125 497.35938 493.03125 496.78125Q493.75 496.1875 494.84375 496.1875Q495.65625 496.1875 496.26562 496.51562Q496.875 496.84375 497.26562 497.45312Q497.67188 498.0625 497.89062 498.9375Q498.10938 499.8125 498.10938 501.3125Q498.10938 503.07812 497.75 504.15625Q497.39062 505.23438 496.67188 505.82812Q495.95312 506.42188 494.84375 506.42188Q493.40625 506.42188 492.57812 505.375Q491.57812 504.125 491.57812 501.3125ZM492.84375 501.3125Q492.84375 503.78125 493.42188 504.59375Q494.0 505.40625 494.84375 505.40625Q495.70312 505.40625 496.28125 504.59375Q496.85938 503.76562 496.85938 501.3125Q496.85938 498.82812 496.28125 498.01562Q495.70312 497.20312 494.82812 497.20312Q493.98438 497.20312 493.48438 497.92188Q492.84375 498.84375 492.84375 501.3125Z" fill-rule="nonzero"/><path fill="#000000" d="M520.875 506.25L519.6406 506.25L519.6406 498.40625Q519.2031 498.82812 518.46875 499.26562Q517.75 499.6875 517.1875 499.89062L517.1875 498.70312Q518.21875 498.21875 518.9844 497.53125Q519.7656 496.84375 520.0781 496.1875L520.875 496.1875L520.875 506.25ZM528.1875 506.25L528.1875 503.84375L523.8281 503.84375L523.8281 502.71875L528.40625 496.23438L529.40625 496.23438L529.40625 502.71875L530.7656 502.71875L530.7656 503.84375L529.40625 503.84375L529.40625 506.25L528.1875 506.25ZM528.1875 502.71875L528.1875 498.20312L525.0469 502.71875L528.1875 502.71875ZM532.9219 506.25L532.9219 504.84375L534.3281 504.84375L534.3281 506.25L532.9219 506.25ZM536.2344 501.3125Q536.2344 499.53125 536.59375 498.45312Q536.96875 497.35938 537.6875 496.78125Q538.40625 496.1875 539.5 496.1875Q540.3125 496.1875 540.9219 496.51562Q541.53125 496.84375 541.9219 497.45312Q542.3281 498.0625 542.5469 498.9375Q542.7656 499.8125 542.7656 501.3125Q542.7656 503.07812 542.40625 504.15625Q542.0469 505.23438 541.3281 505.82812Q540.6094 506.42188 539.5 506.42188Q538.0625 506.42188 537.2344 505.375Q536.2344 504.125 536.2344 501.3125ZM537.5 501.3125Q537.5 503.78125 538.0781 504.59375Q538.65625 505.40625 539.5 505.40625Q540.3594 505.40625 540.9375 504.59375Q541.5156 503.76562 541.5156 501.3125Q541.5156 498.82812 540.9375 498.01562Q540.3594 497.20312 539.4844 497.20312Q538.6406 497.20312 538.1406 497.92188Q537.5 498.84375 537.5 501.3125ZM550.625 498.6875L549.40625 498.78125Q549.2344 498.04688 548.9375 497.71875Q548.4375 497.20312 547.7031 497.20312Q547.1094 497.20312 546.6719 497.53125Q546.09375 497.95312 545.75 498.76562Q545.4219 499.57812 545.40625 501.07812Q545.84375 500.40625 546.4844 500.07812Q547.1406 499.75 547.84375 499.75Q549.0781 499.75 549.9375 500.65625Q550.7969 501.5625 550.7969 503.0Q550.7969 503.9375 550.3906 504.75Q549.9844 505.5625 549.2656 506.0Q548.5625 506.42188 547.65625 506.42188Q546.125 506.42188 545.15625 505.29688Q544.1875 504.15625 544.1875 501.5625Q544.1875 498.65625 545.25 497.32812Q546.1875 496.1875 547.78125 496.1875Q548.96875 496.1875 549.71875 496.85938Q550.46875 497.51562 550.625 498.6875ZM545.59375 503.0Q545.59375 503.64062 545.8594 504.21875Q546.1406 504.79688 546.625 505.10938Q547.1094 505.40625 547.6406 505.40625Q548.4219 505.40625 548.9844 504.78125Q549.5469 504.15625 549.5469 503.07812Q549.5469 502.03125 548.9844 501.4375Q548.4375 500.82812 547.59375 500.82812Q546.7656 500.82812 546.1719 501.4375Q545.59375 502.03125 545.59375 503.0Z" fill-rule="nonzero"/><path fill="#000000" d="M573.53125 506.25L572.2969 506.25L572.2969 498.40625Q571.8594 498.82812 571.125 499.26562Q570.40625 499.6875 569.84375 499.89062L569.84375 498.70312Q570.875 498.21875 571.6406 497.53125Q572.4219 496.84375 572.7344 496.1875L573.53125 496.1875L573.53125 506.25ZM576.8906 503.625L578.1875 503.51562Q578.3281 504.45312 578.84375 504.9375Q579.375 505.40625 580.1094 505.40625Q581.0 505.40625 581.6094 504.73438Q582.2344 504.0625 582.2344 502.96875Q582.2344 501.90625 581.6406 501.29688Q581.0469 500.6875 580.09375 500.6875Q579.5 500.6875 579.0156 500.96875Q578.5469 501.23438 578.2656 501.65625L577.1094 501.51562L578.0781 496.35938L583.0625 496.35938L583.0625 497.54688L579.0625 497.54688L578.53125 500.23438Q579.4375 499.60938 580.4219 499.60938Q581.7344 499.60938 582.625 500.51562Q583.53125 501.42188 583.53125 502.85938Q583.53125 504.21875 582.75 505.20312Q581.78125 506.42188 580.1094 506.42188Q578.75 506.42188 577.875 505.65625Q577.0156 504.89062 576.8906 503.625ZM585.5781 506.25L585.5781 504.84375L586.9844 504.84375L586.9844 506.25L585.5781 506.25ZM595.28125 498.6875L594.0625 498.78125Q593.8906 498.04688 593.59375 497.71875Q593.09375 497.20312 592.3594 497.20312Q591.7656 497.20312 591.3281 497.53125Q590.75 497.95312 590.40625 498.76562Q590.0781 499.57812 590.0625 501.07812Q590.5 500.40625 591.1406 500.07812Q591.7969 499.75 592.5 499.75Q593.7344 499.75 594.59375 500.65625Q595.4531 501.5625 595.4531 503.0Q595.4531 503.9375 595.0469 504.75Q594.6406 505.5625 593.9219 506.0Q593.21875 506.42188 592.3125 506.42188Q590.78125 506.42188 589.8125 505.29688Q588.84375 504.15625 588.84375 501.5625Q588.84375 498.65625 589.90625 497.32812Q590.84375 496.1875 592.4375 496.1875Q593.625 496.1875 594.375 496.85938Q595.125 497.51562 595.28125 498.6875ZM590.25 503.0Q590.25 503.64062 590.5156 504.21875Q590.7969 504.79688 591.28125 505.10938Q591.7656 505.40625 592.2969 505.40625Q593.0781 505.40625 593.6406 504.78125Q594.2031 504.15625 594.2031 503.07812Q594.2031 502.03125 593.6406 501.4375Q593.09375 500.82812 592.25 500.82812Q591.4219 500.82812 590.8281 501.4375Q590.25 502.03125 590.25 503.0ZM596.90625 503.60938L598.125 503.4375Q598.34375 504.48438 598.84375 504.95312Q599.3594 505.40625 600.09375 505.40625Q600.96875 505.40625 601.5625 504.8125Q602.15625 504.20312 602.15625 503.3125Q602.15625 502.46875 601.59375 501.92188Q601.0469 501.375 600.2031 501.375Q599.84375 501.375 599.3281 501.5L599.46875 500.42188Q599.59375 500.4375 599.65625 500.4375Q600.4531 500.4375 601.0781 500.03125Q601.7031 499.625 601.7031 498.76562Q601.7031 498.09375 601.25 497.65625Q600.7969 497.20312 600.0625 497.20312Q599.34375 497.20312 598.8594 497.65625Q598.3906 498.09375 598.25 499.0L597.03125 498.78125Q597.25 497.54688 598.0469 496.875Q598.84375 496.1875 600.03125 496.1875Q600.8594 496.1875 601.5469 496.54688Q602.2344 496.89062 602.59375 497.5Q602.96875 498.10938 602.96875 498.79688Q602.96875 499.4375 602.625 499.96875Q602.28125 500.5 601.59375 500.82812Q602.4844 501.03125 602.96875 501.67188Q603.46875 502.3125 603.46875 503.29688Q603.46875 504.60938 602.5 505.51562Q601.5469 506.42188 600.09375 506.42188Q598.7656 506.42188 597.8906 505.64062Q597.03125 504.85938 596.90625 503.60938Z" fill-rule="nonzero"/><path fill="#000000" d="M626.1875 506.25L624.9531 506.25L624.9531 498.40625Q624.5156 498.82812 623.78125 499.26562Q623.0625 499.6875 622.5 499.89062L622.5 498.70312Q623.53125 498.21875 624.2969 497.53125Q625.0781 496.84375 625.3906 496.1875L626.1875 496.1875L626.1875 506.25ZM629.625 497.54688L629.625 496.35938L636.125 496.35938L636.125 497.3125Q635.15625 498.32812 634.21875 500.01562Q633.28125 501.70312 632.7656 503.5Q632.40625 504.75 632.2969 506.25L631.03125 506.25Q631.0469 505.0625 631.4844 503.39062Q631.9375 501.71875 632.7656 500.17188Q633.6094 498.60938 634.5469 497.54688L629.625 497.54688ZM638.2344 506.25L638.2344 504.84375L639.6406 504.84375L639.6406 506.25L638.2344 506.25ZM646.1875 506.25L644.9531 506.25L644.9531 498.40625Q644.5156 498.82812 643.78125 499.26562Q643.0625 499.6875 642.5 499.89062L642.5 498.70312Q643.53125 498.21875 644.2969 497.53125Q645.0781 496.84375 645.3906 496.1875L646.1875 496.1875L646.1875 506.25ZM649.7344 503.9375L650.9219 503.82812Q651.0625 504.65625 651.4844 505.03125Q651.9219 505.40625 652.5781 505.40625Q653.1406 505.40625 653.5625 505.15625Q654.0 504.89062 654.2656 504.45312Q654.5469 504.01562 654.7344 503.28125Q654.9219 502.54688 654.9219 501.78125Q654.9219 501.70312 654.90625 501.53125Q654.5469 502.125 653.90625 502.5Q653.2656 502.85938 652.5156 502.85938Q651.2656 502.85938 650.40625 501.95312Q649.5469 501.04688 649.5469 499.57812Q649.5469 498.04688 650.4375 497.125Q651.34375 496.1875 652.7031 496.1875Q653.6719 496.1875 654.4844 496.71875Q655.2969 497.23438 655.71875 498.21875Q656.1406 499.1875 656.1406 501.03125Q656.1406 502.95312 655.71875 504.09375Q655.3125 505.23438 654.4844 505.82812Q653.65625 506.42188 652.5469 506.42188Q651.375 506.42188 650.625 505.76562Q649.8906 505.10938 649.7344 503.9375ZM654.7656 499.51562Q654.7656 498.45312 654.2031 497.82812Q653.6406 497.20312 652.8594 497.20312Q652.03125 497.20312 651.4219 497.875Q650.8125 498.54688 650.8125 499.60938Q650.8125 500.5625 651.3906 501.17188Q651.96875 501.76562 652.8125 501.76562Q653.6719 501.76562 654.21875 501.17188Q654.7656 500.5625 654.7656 499.51562Z" fill-rule="nonzero"/><path fill="#000000" d="M678.84375 506.25L677.6094 506.25L677.6094 498.40625Q677.1719 498.82812 676.4375 499.26562Q675.71875 499.6875 675.15625 499.89062L675.15625 498.70312Q676.1875 498.21875 676.9531 497.53125Q677.7344 496.84375 678.0469 496.1875L678.84375 496.1875L678.84375 506.25ZM684.09375 500.8125Q683.3281 500.53125 682.9531 500.01562Q682.59375 499.5 682.59375 498.76562Q682.59375 497.67188 683.375 496.9375Q684.1719 496.1875 685.46875 496.1875Q686.78125 496.1875 687.5781 496.95312Q688.3906 497.71875 688.3906 498.8125Q688.3906 499.5 688.0156 500.01562Q687.65625 500.53125 686.90625 500.8125Q687.8281 501.10938 688.3125 501.78125Q688.7969 502.45312 688.7969 503.39062Q688.7969 504.67188 687.8906 505.54688Q686.9844 506.42188 685.5 506.42188Q684.0156 506.42188 683.09375 505.54688Q682.1875 504.65625 682.1875 503.34375Q682.1875 502.375 682.6875 501.71875Q683.1875 501.04688 684.09375 500.8125ZM683.8594 498.73438Q683.8594 499.4375 684.3125 499.89062Q684.7656 500.34375 685.5 500.34375Q686.21875 500.34375 686.6719 499.90625Q687.125 499.45312 687.125 498.79688Q687.125 498.125 686.65625 497.67188Q686.1875 497.20312 685.4844 497.20312Q684.78125 497.20312 684.3125 497.65625Q683.8594 498.09375 683.8594 498.73438ZM683.4531 503.35938Q683.4531 503.89062 683.7031 504.39062Q683.9531 504.875 684.4375 505.14062Q684.9375 505.40625 685.5156 505.40625Q686.3906 505.40625 686.9531 504.84375Q687.53125 504.28125 687.53125 503.40625Q687.53125 502.51562 686.9375 501.9375Q686.3594 501.34375 685.46875 501.34375Q684.59375 501.34375 684.0156 501.92188Q683.4531 502.5 683.4531 503.35938ZM690.8906 506.25L690.8906 504.84375L692.2969 504.84375L692.2969 506.25L690.8906 506.25ZM694.28125 497.54688L694.28125 496.35938L700.78125 496.35938L700.78125 497.3125Q699.8125 498.32812 698.875 500.01562Q697.9375 501.70312 697.4219 503.5Q697.0625 504.75 696.9531 506.25L695.6875 506.25Q695.7031 505.0625 696.1406 503.39062Q696.59375 501.71875 697.4219 500.17188Q698.2656 498.60938 699.2031 497.54688L694.28125 497.54688ZM702.2031 503.625L703.5 503.51562Q703.6406 504.45312 704.15625 504.9375Q704.6875 505.40625 705.4219 505.40625Q706.3125 505.40625 706.9219 504.73438Q707.5469 504.0625 707.5469 502.96875Q707.5469 501.90625 706.9531 501.29688Q706.3594 500.6875 705.40625 500.6875Q704.8125 500.6875 704.3281 500.96875Q703.8594 501.23438 703.5781 501.65625L702.4219 501.51562L703.3906 496.35938L708.375 496.35938L708.375 497.54688L704.375 497.54688L703.84375 500.23438Q704.75 499.60938 705.7344 499.60938Q707.0469 499.60938 707.9375 500.51562Q708.84375 501.42188 708.84375 502.85938Q708.84375 504.21875 708.0625 505.20312Q707.09375 506.42188 705.4219 506.42188Q704.0625 506.42188 703.1875 505.65625Q702.3281 504.89062 702.2031 503.625Z" fill-rule="nonzero"/><path fill="#000000" d="M733.3281 505.0625L733.3281 506.25L726.7031 506.25Q726.6875 505.8125 726.84375 505.39062Q727.1094 504.71875 727.65625 504.0625Q728.21875 503.40625 729.2656 502.54688Q730.90625 501.20312 731.46875 500.42188Q732.0469 499.64062 732.0469 498.9375Q732.0469 498.20312 731.5156 497.70312Q731.0 497.20312 730.1719 497.20312Q729.28125 497.20312 728.7344 497.73438Q728.2031 498.26562 728.2031 499.21875L726.9375 499.07812Q727.0625 497.67188 727.90625 496.9375Q728.7656 496.1875 730.1875 496.1875Q731.6406 496.1875 732.46875 496.98438Q733.3125 497.78125 733.3125 498.96875Q733.3125 499.57812 733.0625 500.15625Q732.8281 500.73438 732.25 501.375Q731.6875 502.01562 730.3594 503.14062Q729.25 504.0625 728.9375 504.40625Q728.625 504.73438 728.4219 505.0625L733.3281 505.0625ZM734.8594 501.3125Q734.8594 499.53125 735.21875 498.45312Q735.59375 497.35938 736.3125 496.78125Q737.03125 496.1875 738.125 496.1875Q738.9375 496.1875 739.5469 496.51562Q740.15625 496.84375 740.5469 497.45312Q740.9531 498.0625 741.1719 498.9375Q741.3906 499.8125 741.3906 501.3125Q741.3906 503.07812 741.03125 504.15625Q740.6719 505.23438 739.9531 505.82812Q739.2344 506.42188 738.125 506.42188Q736.6875 506.42188 735.8594 505.375Q734.8594 504.125 734.8594 501.3125ZM736.125 501.3125Q736.125 503.78125 736.7031 504.59375Q737.28125 505.40625 738.125 505.40625Q738.9844 505.40625 739.5625 504.59375Q740.1406 503.76562 740.1406 501.3125Q740.1406 498.82812 739.5625 498.01562Q738.9844 497.20312 738.1094 497.20312Q737.2656 497.20312 736.7656 497.92188Q736.125 498.84375 736.125 501.3125ZM743.5469 506.25L743.5469 504.84375L744.9531 504.84375L744.9531 506.25L743.5469 506.25ZM746.875 503.60938L748.09375 503.4375Q748.3125 504.48438 748.8125 504.95312Q749.3281 505.40625 750.0625 505.40625Q750.9375 505.40625 751.53125 504.8125Q752.125 504.20312 752.125 503.3125Q752.125 502.46875 751.5625 501.92188Q751.0156 501.375 750.1719 501.375Q749.8125 501.375 749.2969 501.5L749.4375 500.42188Q749.5625 500.4375 749.625 500.4375Q750.4219 500.4375 751.0469 500.03125Q751.6719 499.625 751.6719 498.76562Q751.6719 498.09375 751.21875 497.65625Q750.7656 497.20312 750.03125 497.20312Q749.3125 497.20312 748.8281 497.65625Q748.3594 498.09375 748.21875 499.0L747.0 498.78125Q747.21875 497.54688 748.0156 496.875Q748.8125 496.1875 750.0 496.1875Q750.8281 496.1875 751.5156 496.54688Q752.2031 496.89062 752.5625 497.5Q752.9375 498.10938 752.9375 498.79688Q752.9375 499.4375 752.59375 499.96875Q752.25 500.5 751.5625 500.82812Q752.4531 501.03125 752.9375 501.67188Q753.4375 502.3125 753.4375 503.29688Q753.4375 504.60938 752.46875 505.51562Q751.5156 506.42188 750.0625 506.42188Q748.7344 506.42188 747.8594 505.64062Q747.0 504.85938 746.875 503.60938ZM759.5 506.25L758.2656 506.25L758.2656 498.40625Q757.8281 498.82812 757.09375 499.26562Q756.375 499.6875 755.8125 499.89062L755.8125 498.70312Q756.84375 498.21875 757.6094 497.53125Q758.3906 496.84375 758.7031 496.1875L759.5 496.1875L759.5 506.25Z" fill-rule="nonzero"/><path fill="#000000" d="M785.9844 505.0625L785.9844 506.25L779.3594 506.25Q779.34375 505.8125 779.5 505.39062Q779.7656 504.71875 780.3125 504.0625Q780.875 503.40625 781.9219 502.54688Q783.5625 501.20312 784.125 500.42188Q784.7031 499.64062 784.7031 498.9375Q784.7031 498.20312 784.1719 497.70312Q783.65625 497.20312 782.8281 497.20312Q781.9375 497.20312 781.3906 497.73438Q780.8594 498.26562 780.8594 499.21875L779.59375 499.07812Q779.71875 497.67188 780.5625 496.9375Q781.4219 496.1875 782.84375 496.1875Q784.2969 496.1875 785.125 496.98438Q785.96875 497.78125 785.96875 498.96875Q785.96875 499.57812 785.71875 500.15625Q785.4844 500.73438 784.90625 501.375Q784.34375 502.01562 783.0156 503.14062Q781.90625 504.0625 781.59375 504.40625Q781.28125 504.73438 781.0781 505.0625L785.9844 505.0625ZM792.15625 506.25L790.9219 506.25L790.9219 498.40625Q790.4844 498.82812 789.75 499.26562Q789.03125 499.6875 788.46875 499.89062L788.46875 498.70312Q789.5 498.21875 790.2656 497.53125Q791.0469 496.84375 791.3594 496.1875L792.15625 496.1875L792.15625 506.25ZM796.2031 506.25L796.2031 504.84375L797.6094 504.84375L797.6094 506.25L796.2031 506.25ZM801.40625 500.8125Q800.6406 500.53125 800.2656 500.01562Q799.90625 499.5 799.90625 498.76562Q799.90625 497.67188 800.6875 496.9375Q801.4844 496.1875 802.78125 496.1875Q804.09375 496.1875 804.8906 496.95312Q805.7031 497.71875 805.7031 498.8125Q805.7031 499.5 805.3281 500.01562Q804.96875 500.53125 804.21875 500.8125Q805.1406 501.10938 805.625 501.78125Q806.1094 502.45312 806.1094 503.39062Q806.1094 504.67188 805.2031 505.54688Q804.2969 506.42188 802.8125 506.42188Q801.3281 506.42188 800.40625 505.54688Q799.5 504.65625 799.5 503.34375Q799.5 502.375 800.0 501.71875Q800.5 501.04688 801.40625 500.8125ZM801.1719 498.73438Q801.1719 499.4375 801.625 499.89062Q802.0781 500.34375 802.8125 500.34375Q803.53125 500.34375 803.9844 499.90625Q804.4375 499.45312 804.4375 498.79688Q804.4375 498.125 803.96875 497.67188Q803.5 497.20312 802.7969 497.20312Q802.09375 497.20312 801.625 497.65625Q801.1719 498.09375 801.1719 498.73438ZM800.7656 503.35938Q800.7656 503.89062 801.0156 504.39062Q801.2656 504.875 801.75 505.14062Q802.25 505.40625 802.8281 505.40625Q803.7031 505.40625 804.2656 504.84375Q804.84375 504.28125 804.84375 503.40625Q804.84375 502.51562 804.25 501.9375Q803.6719 501.34375 802.78125 501.34375Q801.90625 501.34375 801.3281 501.92188Q800.7656 502.5 800.7656 503.35938ZM809.40625 500.8125Q808.6406 500.53125 808.2656 500.01562Q807.90625 499.5 807.90625 498.76562Q807.90625 497.67188 808.6875 496.9375Q809.4844 496.1875 810.78125 496.1875Q812.09375 496.1875 812.8906 496.95312Q813.7031 497.71875 813.7031 498.8125Q813.7031 499.5 813.3281 500.01562Q812.96875 500.53125 812.21875 500.8125Q813.1406 501.10938 813.625 501.78125Q814.1094 502.45312 814.1094 503.39062Q814.1094 504.67188 813.2031 505.54688Q812.2969 506.42188 810.8125 506.42188Q809.3281 506.42188 808.40625 505.54688Q807.5 504.65625 807.5 503.34375Q807.5 502.375 808.0 501.71875Q808.5 501.04688 809.40625 500.8125ZM809.1719 498.73438Q809.1719 499.4375 809.625 499.89062Q810.0781 500.34375 810.8125 500.34375Q811.53125 500.34375 811.9844 499.90625Q812.4375 499.45312 812.4375 498.79688Q812.4375 498.125 811.96875 497.67188Q811.5 497.20312 810.7969 497.20312Q810.09375 497.20312 809.625 497.65625Q809.1719 498.09375 809.1719 498.73438ZM808.7656 503.35938Q808.7656 503.89062 809.0156 504.39062Q809.2656 504.875 809.75 505.14062Q810.25 505.40625 810.8281 505.40625Q811.7031 505.40625 812.2656 504.84375Q812.84375 504.28125 812.84375 503.40625Q812.84375 502.51562 812.25 501.9375Q811.6719 501.34375 810.78125 501.34375Q809.90625 501.34375 809.3281 501.92188Q808.7656 502.5 808.7656 503.35938Z" fill-rule="nonzero"/><path fill="#000000" d="M838.6406 505.0625L838.6406 506.25L832.0156 506.25Q832.0 505.8125 832.15625 505.39062Q832.4219 504.71875 832.96875 504.0625Q833.53125 503.40625 834.5781 502.54688Q836.21875 501.20312 836.78125 500.42188Q837.3594 499.64062 837.3594 498.9375Q837.3594 498.20312 836.8281 497.70312Q836.3125 497.20312 835.4844 497.20312Q834.59375 497.20312 834.0469 497.73438Q833.5156 498.26562 833.5156 499.21875L832.25 499.07812Q832.375 497.67188 833.21875 496.9375Q834.0781 496.1875 835.5 496.1875Q836.9531 496.1875 837.78125 496.98438Q838.625 497.78125 838.625 498.96875Q838.625 499.57812 838.375 500.15625Q838.1406 500.73438 837.5625 501.375Q837.0 502.01562 835.6719 503.14062Q834.5625 504.0625 834.25 504.40625Q833.9375 504.73438 833.7344 505.0625L838.6406 505.0625ZM840.1875 503.60938L841.40625 503.4375Q841.625 504.48438 842.125 504.95312Q842.6406 505.40625 843.375 505.40625Q844.25 505.40625 844.84375 504.8125Q845.4375 504.20312 845.4375 503.3125Q845.4375 502.46875 844.875 501.92188Q844.3281 501.375 843.4844 501.375Q843.125 501.375 842.6094 501.5L842.75 500.42188Q842.875 500.4375 842.9375 500.4375Q843.7344 500.4375 844.3594 500.03125Q844.9844 499.625 844.9844 498.76562Q844.9844 498.09375 844.53125 497.65625Q844.0781 497.20312 843.34375 497.20312Q842.625 497.20312 842.1406 497.65625Q841.6719 498.09375 841.53125 499.0L840.3125 498.78125Q840.53125 497.54688 841.3281 496.875Q842.125 496.1875 843.3125 496.1875Q844.1406 496.1875 844.8281 496.54688Q845.5156 496.89062 845.875 497.5Q846.25 498.10938 846.25 498.79688Q846.25 499.4375 845.90625 499.96875Q845.5625 500.5 844.875 500.82812Q845.7656 501.03125 846.25 501.67188Q846.75 502.3125 846.75 503.29688Q846.75 504.60938 845.78125 505.51562Q844.8281 506.42188 843.375 506.42188Q842.0469 506.42188 841.1719 505.64062Q840.3125 504.85938 840.1875 503.60938ZM848.8594 506.25L848.8594 504.84375L850.2656 504.84375L850.2656 506.25L848.8594 506.25ZM856.125 506.25L856.125 503.84375L851.7656 503.84375L851.7656 502.71875L856.34375 496.23438L857.34375 496.23438L857.34375 502.71875L858.7031 502.71875L858.7031 503.84375L857.34375 503.84375L857.34375 506.25L856.125 506.25ZM856.125 502.71875L856.125 498.20312L852.9844 502.71875L856.125 502.71875ZM864.125 506.25L864.125 503.84375L859.7656 503.84375L859.7656 502.71875L864.34375 496.23438L865.34375 496.23438L865.34375 502.71875L866.7031 502.71875L866.7031 503.84375L865.34375 503.84375L865.34375 506.25L864.125 506.25ZM864.125 502.71875L864.125 498.20312L860.9844 502.71875L864.125 502.71875Z" fill-rule="nonzero"/><path fill="#000000" d="M891.2969 505.0625L891.2969 506.25L884.6719 506.25Q884.65625 505.8125 884.8125 505.39062Q885.0781 504.71875 885.625 504.0625Q886.1875 503.40625 887.2344 502.54688Q888.875 501.20312 889.4375 500.42188Q890.0156 499.64062 890.0156 498.9375Q890.0156 498.20312 889.4844 497.70312Q888.96875 497.20312 888.1406 497.20312Q887.25 497.20312 886.7031 497.73438Q886.1719 498.26562 886.1719 499.21875L884.90625 499.07812Q885.03125 497.67188 885.875 496.9375Q886.7344 496.1875 888.15625 496.1875Q889.6094 496.1875 890.4375 496.98438Q891.28125 497.78125 891.28125 498.96875Q891.28125 499.57812 891.03125 500.15625Q890.7969 500.73438 890.21875 501.375Q889.65625 502.01562 888.3281 503.14062Q887.21875 504.0625 886.90625 504.40625Q886.59375 504.73438 886.3906 505.0625L891.2969 505.0625ZM892.8281 503.625L894.125 503.51562Q894.2656 504.45312 894.78125 504.9375Q895.3125 505.40625 896.0469 505.40625Q896.9375 505.40625 897.5469 504.73438Q898.1719 504.0625 898.1719 502.96875Q898.1719 501.90625 897.5781 501.29688Q896.9844 500.6875 896.03125 500.6875Q895.4375 500.6875 894.9531 500.96875Q894.4844 501.23438 894.2031 501.65625L893.0469 501.51562L894.0156 496.35938L899.0 496.35938L899.0 497.54688L895.0 497.54688L894.46875 500.23438Q895.375 499.60938 896.3594 499.60938Q897.6719 499.60938 898.5625 500.51562Q899.46875 501.42188 899.46875 502.85938Q899.46875 504.21875 898.6875 505.20312Q897.71875 506.42188 896.0469 506.42188Q894.6875 506.42188 893.8125 505.65625Q892.9531 504.89062 892.8281 503.625ZM901.5156 506.25L901.5156 504.84375L902.9219 504.84375L902.9219 506.25L901.5156 506.25ZM904.8281 501.3125Q904.8281 499.53125 905.1875 498.45312Q905.5625 497.35938 906.28125 496.78125Q907.0 496.1875 908.09375 496.1875Q908.90625 496.1875 909.5156 496.51562Q910.125 496.84375 910.5156 497.45312Q910.9219 498.0625 911.1406 498.9375Q911.3594 499.8125 911.3594 501.3125Q911.3594 503.07812 911.0 504.15625Q910.6406 505.23438 909.9219 505.82812Q909.2031 506.42188 908.09375 506.42188Q906.65625 506.42188 905.8281 505.375Q904.8281 504.125 904.8281 501.3125ZM906.09375 501.3125Q906.09375 503.78125 906.6719 504.59375Q907.25 505.40625 908.09375 505.40625Q908.9531 505.40625 909.53125 504.59375Q910.1094 503.76562 910.1094 501.3125Q910.1094 498.82812 909.53125 498.01562Q908.9531 497.20312 908.0781 497.20312Q907.2344 497.20312 906.7344 497.92188Q906.09375 498.84375 906.09375 501.3125ZM912.8281 501.3125Q912.8281 499.53125 913.1875 498.45312Q913.5625 497.35938 914.28125 496.78125Q915.0 496.1875 916.09375 496.1875Q916.90625 496.1875 917.5156 496.51562Q918.125 496.84375 918.5156 497.45312Q918.9219 498.0625 919.1406 498.9375Q919.3594 499.8125 919.3594 501.3125Q919.3594 503.07812 919.0 504.15625Q918.6406 505.23438 917.9219 505.82812Q917.2031 506.42188 916.09375 506.42188Q914.65625 506.42188 913.8281 505.375Q912.8281 504.125 912.8281 501.3125ZM914.09375 501.3125Q914.09375 503.78125 914.6719 504.59375Q915.25 505.40625 916.09375 505.40625Q916.9531 505.40625 917.53125 504.59375Q918.1094 503.76562 918.1094 501.3125Q918.1094 498.82812 917.53125 498.01562Q916.9531 497.20312 916.0781 497.20312Q915.2344 497.20312 914.7344 497.92188Q914.09375 498.84375 914.09375 501.3125Z" fill-rule="nonzero"/><path fill="#757575" d="M30.359375 47.75L30.359375 33.4375L32.25 33.4375L32.25 39.3125L39.6875 39.3125L39.6875 33.4375L41.578125 33.4375L41.578125 47.75L39.6875 47.75L39.6875 41.0L32.25 41.0L32.25 47.75L30.359375 47.75ZM43.078125 35.453125L43.078125 33.4375L44.84375 33.4375L44.84375 35.453125L43.078125 35.453125ZM43.078125 47.75L43.078125 37.375L44.84375 37.375L44.84375 47.75L43.078125 47.75ZM46.359375 44.65625L48.109375 44.375Q48.25 45.421875 48.921875 45.984375Q49.59375 46.53125 50.796875 46.53125Q52.0 46.53125 52.578125 46.046875Q53.171875 45.546875 53.171875 44.890625Q53.171875 44.296875 52.65625 43.953125Q52.296875 43.71875 50.859375 43.359375Q48.921875 42.859375 48.171875 42.515625Q47.4375 42.15625 47.046875 41.53125Q46.65625 40.890625 46.65625 40.125Q46.65625 39.4375 46.96875 38.84375Q47.296875 38.25 47.84375 37.859375Q48.25 37.5625 48.953125 37.359375Q49.671875 37.140625 50.484375 37.140625Q51.703125 37.140625 52.625 37.5Q53.546875 37.84375 53.984375 38.453125Q54.421875 39.046875 54.59375 40.046875L52.875 40.28125Q52.75 39.484375 52.1875 39.046875Q51.625 38.59375 50.609375 38.59375Q49.390625 38.59375 48.875 39.0Q48.359375 39.390625 48.359375 39.921875Q48.359375 40.265625 48.578125 40.546875Q48.78125 40.828125 49.25 41.015625Q49.515625 41.109375 50.796875 41.453125Q52.671875 41.953125 53.40625 42.28125Q54.140625 42.59375 54.5625 43.203125Q54.984375 43.796875 54.984375 44.703125Q54.984375 45.578125 54.46875 46.359375Q53.953125 47.140625 52.984375 47.5625Q52.015625 47.984375 50.796875 47.984375Q48.78125 47.984375 47.71875 47.140625Q46.65625 46.296875 46.359375 44.65625ZM60.90625 46.171875L61.15625 47.734375Q60.421875 47.890625 59.828125 47.890625Q58.875 47.890625 58.34375 47.59375Q57.828125 47.28125 57.609375 46.796875Q57.390625 46.296875 57.390625 44.71875L57.390625 38.75L56.109375 38.75L56.109375 37.375L57.390625 37.375L57.390625 34.8125L59.140625 33.75L59.140625 37.375L60.90625 37.375L60.90625 38.75L59.140625 38.75L59.140625 44.8125Q59.140625 45.5625 59.234375 45.78125Q59.328125 45.984375 59.53125 46.125Q59.75 46.25 60.140625 46.25Q60.421875 46.25 60.90625 46.171875ZM62.421875 42.5625Q62.421875 39.6875 64.015625 38.296875Q65.359375 37.140625 67.28125 37.140625Q69.421875 37.140625 70.765625 38.546875Q72.125 39.953125 72.125 42.421875Q72.125 44.421875 71.53125 45.578125Q70.9375 46.71875 69.78125 47.359375Q68.640625 47.984375 67.28125 47.984375Q65.09375 47.984375 63.75 46.59375Q62.421875 45.1875 62.421875 42.5625ZM64.21875 42.5625Q64.21875 44.5625 65.078125 45.546875Q65.953125 46.53125 67.28125 46.53125Q68.59375 46.53125 69.453125 45.546875Q70.328125 44.546875 70.328125 42.5Q70.328125 40.578125 69.453125 39.59375Q68.578125 38.59375 67.28125 38.59375Q65.953125 38.59375 65.078125 39.59375Q64.21875 40.578125 64.21875 42.5625ZM73.75 48.609375L75.453125 48.859375Q75.5625 49.65625 76.046875 50.015625Q76.703125 50.5 77.84375 50.5Q79.0625 50.5 79.71875 50.015625Q80.390625 49.53125 80.625 48.65625Q80.765625 48.109375 80.75 46.390625Q79.59375 47.75 77.875 47.75Q75.734375 47.75 74.5625 46.203125Q73.390625 44.65625 73.390625 42.5Q73.390625 41.015625 73.921875 39.765625Q74.46875 38.515625 75.484375 37.828125Q76.515625 37.140625 77.890625 37.140625Q79.71875 37.140625 80.921875 38.625L80.921875 37.375L82.53125 37.375L82.53125 46.34375Q82.53125 48.765625 82.03125 49.765625Q81.546875 50.78125 80.46875 51.359375Q79.40625 51.953125 77.84375 51.953125Q76.0 51.953125 74.84375 51.125Q73.703125 50.296875 73.75 48.609375ZM75.203125 42.375Q75.203125 44.421875 76.015625 45.359375Q76.828125 46.296875 78.046875 46.296875Q79.25 46.296875 80.0625 45.359375Q80.890625 44.421875 80.890625 42.4375Q80.890625 40.53125 80.046875 39.5625Q79.203125 38.59375 78.015625 38.59375Q76.84375 38.59375 76.015625 39.546875Q75.203125 40.5 75.203125 42.375ZM85.046875 47.75L85.046875 37.375L86.625 37.375L86.625 38.953125Q87.234375 37.84375 87.75 37.5Q88.265625 37.140625 88.875 37.140625Q89.765625 37.140625 90.6875 37.703125L90.078125 39.34375Q89.4375 38.953125 88.796875 38.953125Q88.21875 38.953125 87.75 39.3125Q87.296875 39.65625 87.09375 40.265625Q86.8125 41.203125 86.8125 42.3125L86.8125 47.75L85.046875 47.75ZM98.84375 46.46875Q97.859375 47.296875 96.953125 47.640625Q96.046875 47.984375 95.015625 47.984375Q93.3125 47.984375 92.390625 47.15625Q91.46875 46.3125 91.46875 45.015625Q91.46875 44.25 91.8125 43.625Q92.171875 43.0 92.734375 42.625Q93.296875 42.234375 94.0 42.03125Q94.515625 41.90625 95.5625 41.765625Q97.6875 41.515625 98.6875 41.171875Q98.703125 40.8125 98.703125 40.703125Q98.703125 39.640625 98.203125 39.1875Q97.53125 38.59375 96.203125 38.59375Q94.953125 38.59375 94.359375 39.03125Q93.78125 39.46875 93.5 40.578125L91.78125 40.34375Q92.015625 39.234375 92.546875 38.5625Q93.078125 37.875 94.09375 37.515625Q95.109375 37.140625 96.453125 37.140625Q97.78125 37.140625 98.609375 37.453125Q99.4375 37.765625 99.828125 38.25Q100.21875 38.71875 100.375 39.4375Q100.46875 39.890625 100.46875 41.0625L100.46875 43.40625Q100.46875 45.859375 100.578125 46.515625Q100.6875 47.15625 101.03125 47.75L99.1875 47.75Q98.921875 47.203125 98.84375 46.46875ZM98.6875 42.546875Q97.734375 42.9375 95.8125 43.203125Q94.734375 43.359375 94.28125 43.5625Q93.84375 43.75 93.59375 44.125Q93.34375 44.5 93.34375 44.96875Q93.34375 45.671875 93.875 46.140625Q94.40625 46.609375 95.4375 46.609375Q96.453125 46.609375 97.234375 46.171875Q98.03125 45.71875 98.40625 44.953125Q98.6875 44.34375 98.6875 43.1875L98.6875 42.546875ZM103.0625 47.75L103.0625 37.375L104.640625 37.375L104.640625 38.828125Q105.125 38.078125 105.9375 37.609375Q106.75 37.140625 107.78125 37.140625Q108.9375 37.140625 109.671875 37.625Q110.40625 38.09375 110.71875 38.953125Q111.953125 37.140625 113.921875 37.140625Q115.46875 37.140625 116.296875 38.0Q117.125 38.859375 117.125 40.625L117.125 47.75L115.375 47.75L115.375 41.21875Q115.375 40.15625 115.203125 39.703125Q115.03125 39.234375 114.578125 38.953125Q114.140625 38.671875 113.53125 38.671875Q112.4375 38.671875 111.703125 39.40625Q110.984375 40.125 110.984375 41.71875L110.984375 47.75L109.234375 47.75L109.234375 41.015625Q109.234375 39.84375 108.796875 39.265625Q108.375 38.671875 107.390625 38.671875Q106.65625 38.671875 106.015625 39.0625Q105.390625 39.453125 105.109375 40.203125Q104.828125 40.953125 104.828125 42.375L104.828125 47.75L103.0625 47.75ZM124.421875 42.5625Q124.421875 39.6875 126.015625 38.296875Q127.359375 37.140625 129.28125 37.140625Q131.42188 37.140625 132.76562 38.546875Q134.125 39.953125 134.125 42.421875Q134.125 44.421875 133.53125 45.578125Q132.9375 46.71875 131.78125 47.359375Q130.64062 47.984375 129.28125 47.984375Q127.09375 47.984375 125.75 46.59375Q124.421875 45.1875 124.421875 42.5625ZM126.21875 42.5625Q126.21875 44.5625 127.078125 45.546875Q127.953125 46.53125 129.28125 46.53125Q130.59375 46.53125 131.45312 45.546875Q132.32812 44.546875 132.32812 42.5Q132.32812 40.578125 131.45312 39.59375Q130.57812 38.59375 129.28125 38.59375Q127.953125 38.59375 127.078125 39.59375Q126.21875 40.578125 126.21875 42.5625ZM136.48438 47.75L136.48438 38.75L134.9375 38.75L134.9375 37.375L136.48438 37.375L136.48438 36.28125Q136.48438 35.234375 136.67188 34.71875Q136.92188 34.03125 137.5625 33.609375Q138.20312 33.1875 139.35938 33.1875Q140.10938 33.1875 141.0 33.359375L140.73438 34.890625Q140.1875 34.796875 139.70312 34.796875Q138.90625 34.796875 138.5625 35.140625Q138.23438 35.484375 138.23438 36.421875L138.23438 37.375L140.26562 37.375L140.26562 38.75L138.23438 38.75L138.23438 47.75L136.48438 47.75ZM146.71875 47.75L152.21875 33.4375L154.26562 33.4375L160.125 47.75L157.96875 47.75L156.29688 43.40625L150.3125 43.40625L148.73438 47.75L146.71875 47.75ZM150.85938 41.875L155.70312 41.875L154.21875 37.90625Q153.53125 36.09375 153.20312 34.9375Q152.92188 36.3125 152.42188 37.671875L150.85938 41.875ZM160.75 48.609375L162.45312 48.859375Q162.5625 49.65625 163.04688 50.015625Q163.70312 50.5 164.84375 50.5Q166.0625 50.5 166.71875 50.015625Q167.39062 49.53125 167.625 48.65625Q167.76562 48.109375 167.75 46.390625Q166.59375 47.75 164.875 47.75Q162.73438 47.75 161.5625 46.203125Q160.39062 44.65625 160.39062 42.5Q160.39062 41.015625 160.92188 39.765625Q161.46875 38.515625 162.48438 37.828125Q163.51562 37.140625 164.89062 37.140625Q166.71875 37.140625 167.92188 38.625L167.92188 37.375L169.53125 37.375L169.53125 46.34375Q169.53125 48.765625 169.03125 49.765625Q168.54688 50.78125 167.46875 51.359375Q166.40625 51.953125 164.84375 51.953125Q163.0 51.953125 161.84375 51.125Q160.70312 50.296875 160.75 48.609375ZM162.20312 42.375Q162.20312 44.421875 163.01562 45.359375Q163.82812 46.296875 165.04688 46.296875Q166.25 46.296875 167.0625 45.359375Q167.89062 44.421875 167.89062 42.4375Q167.89062 40.53125 167.04688 39.5625Q166.20312 38.59375 165.01562 38.59375Q163.84375 38.59375 163.01562 39.546875Q162.20312 40.5 162.20312 42.375ZM179.17188 44.40625L180.98438 44.640625Q180.5625 46.21875 179.39062 47.109375Q178.23438 47.984375 176.42188 47.984375Q174.15625 47.984375 172.8125 46.59375Q171.48438 45.1875 171.48438 42.65625Q171.48438 40.03125 172.82812 38.59375Q174.17188 37.140625 176.32812 37.140625Q178.40625 37.140625 179.71875 38.5625Q181.04688 39.96875 181.04688 42.546875Q181.04688 42.703125 181.03125 43.015625L173.29688 43.015625Q173.39062 44.71875 174.26562 45.625Q175.14062 46.53125 176.4375 46.53125Q177.40625 46.53125 178.07812 46.03125Q178.76562 45.515625 179.17188 44.40625ZM173.39062 41.5625L179.1875 41.5625Q179.07812 40.265625 178.53125 39.609375Q177.6875 38.59375 176.34375 38.59375Q175.14062 38.59375 174.3125 39.40625Q173.48438 40.203125 173.39062 41.5625Z" fill-rule="nonzero"/></svg>