<svg version="1.1" viewBox="0.0 0.0 1198.0 737.0" fill="none" stroke="none" stroke-linecap="square" stroke-miterlimit="10" width="1198" height="737" xmlns:xlink="http://www.w3.org/1999/xlink" xmlns="http://www.w3.org/2000/svg"><path fill="#ffffff" d="M0 0L1198.0 0L1198.0 737.0L0 737.0L0 0Z" fill-rule="nonzero"/><path stroke="#333333" stroke-width="1.0" stroke-linecap="butt" d="M63.5 648.5L1161.5 648.5" fill-rule="nonzero"/><path stroke="#cccccc" stroke-width="1.0" stroke-linecap="butt" d="M63.5 446.5L1161.5 446.5" fill-rule="nonzero"/><path stroke="#cccccc" stroke-width="1.0" stroke-linecap="butt" d="M63.5 245.5L1161.5 245.5" fill-rule="nonzero"/><path stroke="#cccccc" stroke-width="1.0" stroke-linecap="butt" d="M63.5 43.5L1161.5 43.5" fill-rule="nonzero"/><clipPath id="id_0"><path d="M63.85 43.85L1161.15 43.85L1161.15 648.15L63.85 648.15L63.85 43.85Z" clip-rule="nonzero"/></clipPath><path stroke="#000000" stroke-width="2.0" stroke-linecap="butt" stroke-opacity="0.0" clip-path="url(#id_0)" d="M131.0 648.0L65.0 648.0L65.0 499.0C65.0 497.89542 65.89543 497.0 67.0 497.0L129.0 497.0C130.10457 497.0 131.0 497.89542 131.0 499.0Z" fill-rule="nonzero"/><path fill="#4285f4" clip-path="url(#id_0)" d="M131.0 648.0L65.0 648.0L65.0 499.0C65.0 497.89542 65.89543 497.0 67.0 497.0L129.0 497.0C130.10457 497.0 131.0 497.89542 131.0 499.0Z" fill-rule="nonzero"/><path stroke="#000000" stroke-width="2.0" stroke-linecap="butt" stroke-opacity="0.0" clip-path="url(#id_0)" d="M200.0 648.0L134.0 648.0L134.0 136.0C134.0 134.89543 134.89543 134.0 136.0 134.0L198.0 134.0C199.10457 134.0 200.0 134.89543 200.0 136.0Z" fill-rule="nonzero"/><path fill="#4285f4" clip-path="url(#id_0)" d="M200.0 648.0L134.0 648.0L134.0 136.0C134.0 134.89543 134.89543 134.0 136.0 134.0L198.0 134.0C199.10457 134.0 200.0 134.89543 200.0 136.0Z" fill-rule="nonzero"/><path stroke="#000000" stroke-width="2.0" stroke-linecap="butt" stroke-opacity="0.0" clip-path="url(#id_0)" d="M268.0 648.0L202.0 648.0L202.0 358.0C202.0 356.89542 202.89543 356.0 204.0 356.0L266.0 356.0C267.10458 356.0 268.0 356.89542 268.0 358.0Z" fill-rule="nonzero"/><path fill="#4285f4" clip-path="url(#id_0)" d="M268.0 648.0L202.0 648.0L202.0 358.0C202.0 356.89542 202.89543 356.0 204.0 356.0L266.0 356.0C267.10458 356.0 268.0 356.89542 268.0 358.0Z" fill-rule="nonzero"/><path stroke="#000000" stroke-width="2.0" stroke-linecap="butt" stroke-opacity="0.0" clip-path="url(#id_0)" d="M337.0 648.0L271.0 648.0L271.0 157.0C271.0 155.89543 271.89542 155.0 273.0 155.0L335.0 155.0C336.10458 155.0 337.0 155.89543 337.0 157.0Z" fill-rule="nonzero"/><path fill="#4285f4" clip-path="url(#id_0)" d="M337.0 648.0L271.0 648.0L271.0 157.0C271.0 155.89543 271.89542 155.0 273.0 155.0L335.0 155.0C336.10458 155.0 337.0 155.89543 337.0 157.0Z" fill-rule="nonzero"/><path stroke="#000000" stroke-width="2.0" stroke-linecap="butt" stroke-opacity="0.0" clip-path="url(#id_0)" d="M405.0 648.0L339.0 648.0L339.0 358.0C339.0 356.89542 339.89542 356.0 341.0 356.0L403.0 356.0C404.10458 356.0 405.0 356.89542 405.0 358.0Z" fill-rule="nonzero"/><path fill="#4285f4" clip-path="url(#id_0)" d="M405.0 648.0L339.0 648.0L339.0 358.0C339.0 356.89542 339.89542 356.0 341.0 356.0L403.0 356.0C404.10458 356.0 405.0 356.89542 405.0 358.0Z" fill-rule="nonzero"/><path stroke="#000000" stroke-width="2.0" stroke-linecap="butt" stroke-opacity="0.0" clip-path="url(#id_0)" d="M474.0 648.0L408.0 648.0L408.0 227.0C408.0 225.89543 408.89542 225.0 410.0 225.0L472.0 225.0C473.10458 225.0 474.0 225.89543 474.0 227.0Z" fill-rule="nonzero"/><path fill="#4285f4" clip-path="url(#id_0)" d="M474.0 648.0L408.0 648.0L408.0 227.0C408.0 225.89543 408.89542 225.0 410.0 225.0L472.0 225.0C473.10458 225.0 474.0 225.89543 474.0 227.0Z" fill-rule="nonzero"/><path stroke="#000000" stroke-width="2.0" stroke-linecap="butt" stroke-opacity="0.0" clip-path="url(#id_0)" d="M543.0 648.0L477.0 648.0L477.0 429.0C477.0 427.89542 477.89542 427.0 479.0 427.0L541.0 427.0C542.10455 427.0 543.0 427.89542 543.0 429.0Z" fill-rule="nonzero"/><path fill="#4285f4" clip-path="url(#id_0)" d="M543.0 648.0L477.0 648.0L477.0 429.0C477.0 427.89542 477.89542 427.0 479.0 427.0L541.0 427.0C542.10455 427.0 543.0 427.89542 543.0 429.0Z" fill-rule="nonzero"/><path stroke="#000000" stroke-width="2.0" stroke-linecap="butt" stroke-opacity="0.0" clip-path="url(#id_0)" d="M611.0 648.0L545.0 648.0L545.0 499.0C545.0 497.89542 545.89545 497.0 547.0 497.0L609.0 497.0C610.10455 497.0 611.0 497.89542 611.0 499.0Z" fill-rule="nonzero"/><path fill="#4285f4" clip-path="url(#id_0)" d="M611.0 648.0L545.0 648.0L545.0 499.0C545.0 497.89542 545.89545 497.0 547.0 497.0L609.0 497.0C610.10455 497.0 611.0 497.89542 611.0 499.0Z" fill-rule="nonzero"/><path stroke="#000000" stroke-width="2.0" stroke-linecap="butt" stroke-opacity="0.0" clip-path="url(#id_0)" d="M680.0 648.0L614.0 648.0L614.0 529.0C614.0 527.89545 614.89545 527.0 616.0 527.0L678.0 527.0C679.10455 527.0 680.0 527.89545 680.0 529.0Z" fill-rule="nonzero"/><path fill="#4285f4" clip-path="url(#id_0)" d="M680.0 648.0L614.0 648.0L614.0 529.0C614.0 527.89545 614.89545 527.0 616.0 527.0L678.0 527.0C679.10455 527.0 680.0 527.89545 680.0 529.0Z" fill-rule="nonzero"/><path stroke="#000000" stroke-width="2.0" stroke-linecap="butt" stroke-opacity="0.0" clip-path="url(#id_0)" d="M748.0 648.0L682.0 648.0L682.0 620.0C682.0 618.89545 682.89545 618.0 684.0 618.0L746.0 618.0C747.10455 618.0 748.0 618.89545 748.0 620.0Z" fill-rule="nonzero"/><path fill="#4285f4" clip-path="url(#id_0)" d="M748.0 648.0L682.0 648.0L682.0 620.0C682.0 618.89545 682.89545 618.0 684.0 618.0L746.0 618.0C747.10455 618.0 748.0 618.89545 748.0 620.0Z" fill-rule="nonzero"/><path stroke="#000000" stroke-width="2.0" stroke-linecap="butt" stroke-opacity="0.0" clip-path="url(#id_0)" d="M817.0 648.0L751.0 648.0L751.0 648.0L817.0 648.0Z" fill-rule="nonzero"/><path fill="#4285f4" clip-path="url(#id_0)" d="M817.0 648.0L751.0 648.0L751.0 648.0L817.0 648.0Z" fill-rule="nonzero"/><path stroke="#000000" stroke-width="2.0" stroke-linecap="butt" stroke-opacity="0.0" clip-path="url(#id_0)" d="M886.0 648.0L820.0 648.0L820.0 648.0L886.0 648.0Z" fill-rule="nonzero"/><path fill="#4285f4" clip-path="url(#id_0)" d="M886.0 648.0L820.0 648.0L820.0 648.0L886.0 648.0Z" fill-rule="nonzero"/><path stroke="#000000" stroke-width="2.0" stroke-linecap="butt" stroke-opacity="0.0" clip-path="url(#id_0)" d="M954.0 648.0L888.0 648.0L888.0 640.0C888.0 638.89545 888.89545 638.0 890.0 638.0L952.0 638.0C953.10455 638.0 954.0 638.89545 954.0 640.0Z" fill-rule="nonzero"/><path fill="#4285f4" clip-path="url(#id_0)" d="M954.0 648.0L888.0 648.0L888.0 640.0C888.0 638.89545 888.89545 638.0 890.0 638.0L952.0 638.0C953.10455 638.0 954.0 638.89545 954.0 640.0Z" fill-rule="nonzero"/><path stroke="#000000" stroke-width="2.0" stroke-linecap="butt" stroke-opacity="0.0" clip-path="url(#id_0)" d="M1023.0 648.0L957.0 648.0L957.0 630.0C957.0 628.89545 957.89545 628.0 959.0 628.0L1021.0 628.0C1022.10455 628.0 1023.0 628.89545 1023.0 630.0Z" fill-rule="nonzero"/><path fill="#4285f4" clip-path="url(#id_0)" d="M1023.0 648.0L957.0 648.0L957.0 630.0C957.0 628.89545 957.89545 628.0 959.0 628.0L1021.0 628.0C1022.10455 628.0 1023.0 628.89545 1023.0 630.0Z" fill-rule="nonzero"/><path stroke="#000000" stroke-width="2.0" stroke-linecap="butt" stroke-opacity="0.0" clip-path="url(#id_0)" d="M1091.0 648.0L1025.0 648.0L1025.0 640.0C1025.0 638.89545 1025.8954 638.0 1027.0 638.0L1089.0 638.0C1090.1046 638.0 1091.0 638.89545 1091.0 640.0Z" fill-rule="nonzero"/><path fill="#4285f4" clip-path="url(#id_0)" d="M1091.0 648.0L1025.0 648.0L1025.0 640.0C1025.0 638.89545 1025.8954 638.0 1027.0 638.0L1089.0 638.0C1090.1046 638.0 1091.0 638.89545 1091.0 640.0Z" fill-rule="nonzero"/><path stroke="#000000" stroke-width="2.0" stroke-linecap="butt" stroke-opacity="0.0" clip-path="url(#id_0)" d="M1160.0 648.0L1094.0 648.0L1094.0 648.0L1160.0 648.0Z" fill-rule="nonzero"/><path fill="#4285f4" clip-path="url(#id_0)" d="M1160.0 648.0L1094.0 648.0L1094.0 648.0L1160.0 648.0Z" fill-rule="nonzero"/><path fill="#000000" d="M601.9844 697.15L605.28125 688.5563L606.5 688.5563L610.0156 697.15L608.7344 697.15L607.71875 694.54065L604.1406 694.54065L603.1875 697.15L601.9844 697.15ZM604.46875 693.6188L607.375 693.6188L606.4844 691.2438Q606.0625 690.16565 605.875 689.4625Q605.7031 690.29065 605.40625 691.10315L604.46875 693.6188ZM609.59375 697.66565L610.625 697.8219Q610.6875 698.29065 610.9844 698.5094Q611.375 698.8063 612.0469 698.8063Q612.78125 698.8063 613.1719 698.5094Q613.5781 698.2125 613.71875 697.6969Q613.8125 697.3688 613.7969 696.3375Q613.1094 697.15 612.0781 697.15Q610.7969 697.15 610.09375 696.22815Q609.3906 695.29065 609.3906 694.0094Q609.3906 693.1188 609.7031 692.3688Q610.03125 691.60315 610.6406 691.1969Q611.25 690.79065 612.0781 690.79065Q613.1875 690.79065 613.90625 691.6813L613.90625 690.9313L614.875 690.9313L614.875 696.3063Q614.875 697.7594 614.5781 698.3688Q614.28125 698.97815 613.6406 699.3219Q613.0 699.6813 612.0625 699.6813Q610.9531 699.6813 610.2656 699.1813Q609.5781 698.6813 609.59375 697.66565ZM610.46875 693.9313Q610.46875 695.15 610.9531 695.7125Q611.4375 696.275 612.1719 696.275Q612.90625 696.275 613.3906 695.7125Q613.8906 695.15 613.8906 693.9625Q613.8906 692.8219 613.375 692.2438Q612.875 691.66565 612.15625 691.66565Q611.4531 691.66565 610.9531 692.2438Q610.46875 692.8063 610.46875 693.9313ZM621.0469 695.15L622.1406 695.275Q621.8906 696.22815 621.1875 696.7594Q620.4844 697.29065 619.40625 697.29065Q618.0469 697.29065 617.2344 696.4469Q616.4375 695.60315 616.4375 694.0875Q616.4375 692.525 617.25 691.66565Q618.0625 690.79065 619.34375 690.79065Q620.59375 690.79065 621.375 691.6344Q622.1719 692.47815 622.1719 694.025Q622.1719 694.1188 622.1719 694.3063L617.53125 694.3063Q617.59375 695.3375 618.1094 695.8844Q618.625 696.41565 619.40625 696.41565Q619.9844 696.41565 620.3906 696.1188Q620.8125 695.8063 621.0469 695.15ZM617.59375 693.4469L621.0625 693.4469Q621.0 692.65 620.6719 692.2594Q620.15625 691.65 619.3594 691.65Q618.625 691.65 618.125 692.1344Q617.6406 692.6188 617.59375 693.4469Z" fill-rule="nonzero"/><path fill="#000000" d="M51.35 647.91565Q51.35 646.3844 51.6625 645.4625Q51.975 644.525 52.584373 644.025Q53.209373 643.525 54.146873 643.525Q54.834373 643.525 55.35 643.8063Q55.88125 644.0875 56.225 644.6188Q56.56875 645.1344 56.75625 645.8844Q56.94375 646.6344 56.94375 647.91565Q56.94375 649.4313 56.63125 650.35315Q56.334373 651.275 55.709373 651.79065Q55.1 652.29065 54.146873 652.29065Q52.9125 652.29065 52.19375 651.4Q51.35 650.3375 51.35 647.91565ZM52.428123 647.91565Q52.428123 650.025 52.928123 650.72815Q53.428123 651.4313 54.146873 651.4313Q54.88125 651.4313 55.365623 650.72815Q55.865623 650.025 55.865623 647.91565Q55.865623 645.79065 55.365623 645.10315Q54.88125 644.4 54.13125 644.4Q53.4125 644.4 52.975 645.0094Q52.428123 645.79065 52.428123 647.91565Z" fill-rule="nonzero"/><path fill="#000000" d="M49.896873 449.70105L49.896873 450.71667L44.209373 450.71667Q44.209373 450.34167 44.334373 449.9823Q44.553123 449.40417 45.021873 448.84167Q45.50625 448.27917 46.4125 447.5448Q47.81875 446.38855 48.303123 445.71667Q48.803123 445.0448 48.803123 444.45105Q48.803123 443.82605 48.35 443.40417Q47.896873 442.96667 47.178123 442.96667Q46.4125 442.96667 45.959373 443.4198Q45.50625 443.87292 45.490623 444.68542L44.4125 444.57605Q44.521873 443.3573 45.240623 442.7323Q45.975 442.09167 47.209373 442.09167Q48.44375 442.09167 49.1625 442.77917Q49.88125 443.46667 49.88125 444.4823Q49.88125 444.99792 49.6625 445.49792Q49.459373 445.9823 48.959373 446.5448Q48.475 447.09167 47.35 448.0448Q46.396873 448.84167 46.115623 449.13855Q45.85 449.4198 45.678123 449.70105L49.896873 449.70105ZM51.35 446.4823Q51.35 444.95105 51.6625 444.02917Q51.975 443.09167 52.584373 442.59167Q53.209373 442.09167 54.146873 442.09167Q54.834373 442.09167 55.35 442.37292Q55.88125 442.65417 56.225 443.18542Q56.56875 443.70105 56.75625 444.45105Q56.94375 445.20105 56.94375 446.4823Q56.94375 447.99792 56.63125 448.9198Q56.334373 449.84167 55.709373 450.3573Q55.1 450.8573 54.146873 450.8573Q52.9125 450.8573 52.19375 449.96667Q51.35 448.90417 51.35 446.4823ZM52.428123 446.4823Q52.428123 448.59167 52.928123 449.2948Q53.428123 449.99792 54.146873 449.99792Q54.88125 449.99792 55.365623 449.2948Q55.865623 448.59167 55.865623 446.4823Q55.865623 444.3573 55.365623 443.6698Q54.88125 442.96667 54.13125 442.96667Q53.4125 442.96667 52.975 443.57605Q52.428123 444.3573 52.428123 446.4823Z" fill-rule="nonzero"/><path fill="#000000" d="M47.725 249.28334L47.725 247.22084L44.00625 247.22084L44.00625 246.25209L47.928123 240.68959L48.7875 240.68959L48.7875 246.25209L49.94375 246.25209L49.94375 247.22084L48.7875 247.22084L48.7875 249.28334L47.725 249.28334ZM47.725 246.25209L47.725 242.39272L45.0375 246.25209L47.725 246.25209ZM51.35 245.04897Q51.35 243.51772 51.6625 242.59584Q51.975 241.65834 52.584373 241.15834Q53.209373 240.65834 54.146873 240.65834Q54.834373 240.65834 55.35 240.93959Q55.88125 241.22084 56.225 241.75209Q56.56875 242.26772 56.75625 243.01772Q56.94375 243.76772 56.94375 245.04897Q56.94375 246.56459 56.63125 247.48647Q56.334373 248.40834 55.709373 248.92397Q55.1 249.42397 54.146873 249.42397Q52.9125 249.42397 52.19375 248.53334Q51.35 247.47084 51.35 245.04897ZM52.428123 245.04897Q52.428123 247.15834 52.928123 247.86147Q53.428123 248.56459 54.146873 248.56459Q54.88125 248.56459 55.365623 247.86147Q55.865623 247.15834 55.865623 245.04897Q55.865623 242.92397 55.365623 242.23647Q54.88125 241.53334 54.13125 241.53334Q53.4125 241.53334 52.975 242.14272Q52.428123 242.92397 52.428123 245.04897Z" fill-rule="nonzero"/><path fill="#000000" d="M49.81875 41.365623L48.771873 41.44375Q48.63125 40.81875 48.38125 40.5375Q47.94375 40.084373 47.31875 40.084373Q46.81875 40.084373 46.428123 40.365623Q45.94375 40.740623 45.646873 41.44375Q45.365623 42.13125 45.35 43.4125Q45.725 42.834373 46.271873 42.553123Q46.834373 42.271873 47.44375 42.271873Q48.490623 42.271873 49.225 43.053123Q49.975 43.834373 49.975 45.053123Q49.975 45.865623 49.615623 46.56875Q49.271873 47.25625 48.6625 47.63125Q48.053123 47.990623 47.2875 47.990623Q45.959373 47.990623 45.13125 47.021873Q44.303123 46.053123 44.303123 43.834373Q44.303123 41.334373 45.225 40.209373Q46.021873 39.225 47.38125 39.225Q48.396873 39.225 49.0375 39.803123Q49.69375 40.365623 49.81875 41.365623ZM45.521873 45.06875Q45.521873 45.615623 45.740623 46.115623Q45.975 46.6 46.38125 46.865623Q46.803123 47.13125 47.271873 47.13125Q47.928123 47.13125 48.4125 46.6Q48.896873 46.053123 48.896873 45.13125Q48.896873 44.240623 48.4125 43.725Q47.94375 43.209373 47.225 43.209373Q46.50625 43.209373 46.00625 43.725Q45.521873 44.240623 45.521873 45.06875ZM51.35 43.615623Q51.35 42.084373 51.6625 41.1625Q51.975 40.225 52.584373 39.725Q53.209373 39.225 54.146873 39.225Q54.834373 39.225 55.35 39.50625Q55.88125 39.7875 56.225 40.31875Q56.56875 40.834373 56.75625 41.584373Q56.94375 42.334373 56.94375 43.615623Q56.94375 45.13125 56.63125 46.053123Q56.334373 46.975 55.709373 47.490623Q55.1 47.990623 54.146873 47.990623Q52.9125 47.990623 52.19375 47.1Q51.35 46.0375 51.35 43.615623ZM52.428123 43.615623Q52.428123 45.725 52.928123 46.428123Q53.428123 47.13125 54.146873 47.13125Q54.88125 47.13125 55.365623 46.428123Q55.865623 45.725 55.865623 43.615623Q55.865623 41.490623 55.365623 40.803123Q54.88125 40.1 54.13125 40.1Q53.4125 40.1 52.975 40.709373Q52.428123 41.490623 52.428123 43.615623Z" fill-rule="nonzero"/><path fill="#000000" d="M52.35 660.91565Q52.35 659.3844 52.6625 658.4625Q52.975 657.525 53.584373 657.025Q54.209373 656.525 55.146873 656.525Q55.834373 656.525 56.35 656.8063Q56.88125 657.0875 57.225 657.6188Q57.56875 658.1344 57.75625 658.8844Q57.94375 659.6344 57.94375 660.91565Q57.94375 662.4313 57.63125 663.35315Q57.334373 664.275 56.709373 664.79065Q56.1 665.29065 55.146873 665.29065Q53.9125 665.29065 53.19375 664.4Q52.35 663.3375 52.35 660.91565ZM53.428123 660.91565Q53.428123 663.025 53.928123 663.72815Q54.428123 664.4313 55.146873 664.4313Q55.88125 664.4313 56.365623 663.72815Q56.865623 663.025 56.865623 660.91565Q56.865623 658.79065 56.365623 658.10315Q55.88125 657.4 55.13125 657.4Q54.4125 657.4 53.975 658.0094Q53.428123 658.79065 53.428123 660.91565ZM59.94375 665.15L59.94375 663.9469L61.146873 663.9469L61.146873 665.15L59.94375 665.15ZM62.35 660.91565Q62.35 659.3844 62.6625 658.4625Q62.975 657.525 63.584373 657.025Q64.20937 656.525 65.14687 656.525Q65.83437 656.525 66.35 656.8063Q66.88125 657.0875 67.225 657.6188Q67.56875 658.1344 67.75625 658.8844Q67.94375 659.6344 67.94375 660.91565Q67.94375 662.4313 67.63125 663.35315Q67.33437 664.275 66.70937 664.79065Q66.1 665.29065 65.14687 665.29065Q63.9125 665.29065 63.19375 664.4Q62.35 663.3375 62.35 660.91565ZM63.428123 660.91565Q63.428123 663.025 63.928123 663.72815Q64.42812 664.4313 65.14687 664.4313Q65.88125 664.4313 66.36562 663.72815Q66.86562 663.025 66.86562 660.91565Q66.86562 658.79065 66.36562 658.10315Q65.88125 657.4 65.13125 657.4Q64.4125 657.4 63.975 658.0094Q63.428123 658.79065 63.428123 660.91565ZM69.35 660.91565Q69.35 659.3844 69.6625 658.4625Q69.975 657.525 70.58437 657.025Q71.20937 656.525 72.14687 656.525Q72.83437 656.525 73.35 656.8063Q73.88125 657.0875 74.225 657.6188Q74.56875 658.1344 74.75625 658.8844Q74.94375 659.6344 74.94375 660.91565Q74.94375 662.4313 74.63125 663.35315Q74.33437 664.275 73.70937 664.79065Q73.1 665.29065 72.14687 665.29065Q70.9125 665.29065 70.19375 664.4Q69.35 663.3375 69.35 660.91565ZM70.42812 660.91565Q70.42812 663.025 70.92812 663.72815Q71.42812 664.4313 72.14687 664.4313Q72.88125 664.4313 73.36562 663.72815Q73.86562 663.025 73.86562 660.91565Q73.86562 658.79065 73.36562 658.10315Q72.88125 657.4 72.13125 657.4Q71.4125 657.4 70.975 658.0094Q70.42812 658.79065 70.42812 660.91565Z" fill-rule="nonzero"/><path fill="#000000" d="M124.9 665.15L123.85313 665.15L123.85313 658.4313Q123.4625 658.79065 122.8375 659.16565Q122.22813 659.525 121.74375 659.6969L121.74375 658.6813Q122.61875 658.2594 123.275 657.6813Q123.94688 657.0875 124.22813 656.525L124.9 656.525L124.9 665.15ZM128.525 665.15L128.525 663.9469L129.72812 663.9469L129.72812 665.15L128.525 665.15ZM130.93124 662.9L132.04062 662.8063Q132.16562 663.6188 132.60312 664.025Q133.05624 664.4313 133.69687 664.4313Q134.44687 664.4313 134.97812 663.85315Q135.50937 663.275 135.50937 662.3375Q135.50937 661.4313 134.99374 660.91565Q134.49374 660.3844 133.66562 660.3844Q133.16562 660.3844 132.74374 660.6188Q132.3375 660.85315 132.10312 661.2125L131.11874 661.0875L131.94687 656.6813L136.22812 656.6813L136.22812 657.6813L132.79062 657.6813L132.3375 659.9938Q133.10312 659.4469 133.94687 659.4469Q135.07187 659.4469 135.8375 660.22815Q136.61874 661.0094 136.61874 662.2438Q136.61874 663.4 135.94687 664.2594Q135.11874 665.29065 133.69687 665.29065Q132.525 665.29065 131.775 664.6344Q131.04062 663.97815 130.93124 662.9ZM143.4 658.66565L142.35312 658.7438Q142.2125 658.1188 141.9625 657.8375Q141.525 657.3844 140.9 657.3844Q140.4 657.3844 140.00937 657.66565Q139.525 658.04065 139.22812 658.7438Q138.94687 659.4313 138.93124 660.7125Q139.30624 660.1344 139.85312 659.85315Q140.41562 659.5719 141.025 659.5719Q142.07187 659.5719 142.80624 660.35315Q143.55624 661.1344 143.55624 662.35315Q143.55624 663.16565 143.19687 663.8688Q142.85312 664.5563 142.24374 664.9313Q141.63437 665.29065 140.86874 665.29065Q139.54062 665.29065 138.7125 664.3219Q137.88437 663.35315 137.88437 661.1344Q137.88437 658.6344 138.80624 657.5094Q139.60312 656.525 140.9625 656.525Q141.97812 656.525 142.61874 657.10315Q143.275 657.66565 143.4 658.66565ZM139.10312 662.3688Q139.10312 662.91565 139.32187 663.41565Q139.55624 663.9 139.9625 664.16565Q140.38437 664.4313 140.85312 664.4313Q141.50937 664.4313 141.99374 663.9Q142.47812 663.35315 142.47812 662.4313Q142.47812 661.54065 141.99374 661.025Q141.525 660.5094 140.80624 660.5094Q140.0875 660.5094 139.5875 661.025Q139.10312 661.54065 139.10312 662.3688Z" fill-rule="nonzero"/><path fill="#000000" d="M189.5125 662.8844L190.575 662.7438Q190.74687 663.6344 191.18437 664.04065Q191.62187 664.4313 192.24687 664.4313Q192.99687 664.4313 193.5125 663.91565Q194.02812 663.4 194.02812 662.6344Q194.02812 661.91565 193.54375 661.4469Q193.075 660.9625 192.34062 660.9625Q192.04375 660.9625 191.59062 661.0875L191.71562 660.15Q191.825 660.16565 191.8875 660.16565Q192.55937 660.16565 193.09062 659.8219Q193.6375 659.4625 193.6375 658.72815Q193.6375 658.15 193.24687 657.775Q192.85625 657.3844 192.23125 657.3844Q191.62187 657.3844 191.2 657.775Q190.79375 658.16565 190.68437 658.9313L189.62187 658.7438Q189.80937 657.6969 190.49687 657.1188Q191.18437 656.525 192.2 656.525Q192.90312 656.525 193.49687 656.8375Q194.09062 657.1344 194.40312 657.65Q194.71562 658.16565 194.71562 658.7594Q194.71562 659.3063 194.41875 659.775Q194.12187 660.22815 193.54375 660.4938Q194.29375 660.66565 194.71562 661.22815Q195.1375 661.775 195.1375 662.6188Q195.1375 663.7438 194.30937 664.525Q193.49687 665.3063 192.24687 665.3063Q191.12187 665.3063 190.37187 664.6344Q189.62187 663.9469 189.5125 662.8844ZM197.10625 665.15L197.10625 663.9469L198.30937 663.9469L198.30937 665.15L197.10625 665.15ZM203.48125 665.15L202.43437 665.15L202.43437 658.4313Q202.04375 658.79065 201.41875 659.16565Q200.80937 659.525 200.325 659.6969L200.325 658.6813Q201.2 658.2594 201.85625 657.6813Q202.52812 657.0875 202.80937 656.525L203.48125 656.525L203.48125 665.15ZM206.5125 662.8844L207.575 662.7438Q207.74687 663.6344 208.18437 664.04065Q208.62187 664.4313 209.24687 664.4313Q209.99687 664.4313 210.5125 663.91565Q211.02812 663.4 211.02812 662.6344Q211.02812 661.91565 210.54375 661.4469Q210.075 660.9625 209.34062 660.9625Q209.04375 660.9625 208.59062 661.0875L208.71562 660.15Q208.825 660.16565 208.8875 660.16565Q209.55937 660.16565 210.09062 659.8219Q210.6375 659.4625 210.6375 658.72815Q210.6375 658.15 210.24687 657.775Q209.85625 657.3844 209.23125 657.3844Q208.62187 657.3844 208.2 657.775Q207.79375 658.16565 207.68437 658.9313L206.62187 658.7438Q206.80937 657.6969 207.49687 657.1188Q208.18437 656.525 209.2 656.525Q209.90312 656.525 210.49687 656.8375Q211.09062 657.1344 211.40312 657.65Q211.71562 658.16565 211.71562 658.7594Q211.71562 659.3063 211.41875 659.775Q211.12187 660.22815 210.54375 660.4938Q211.29375 660.66565 211.71562 661.22815Q212.1375 661.775 212.1375 662.6188Q212.1375 663.7438 211.30937 664.525Q210.49687 665.3063 209.24687 665.3063Q208.12187 665.3063 207.37187 664.6344Q206.62187 663.9469 206.5125 662.8844Z" fill-rule="nonzero"/><path fill="#000000" d="M261.46875 665.15L261.46875 663.0875L257.75 663.0875L257.75 662.1188L261.67188 656.5563L262.53125 656.5563L262.53125 662.1188L263.6875 662.1188L263.6875 663.0875L262.53125 663.0875L262.53125 665.15L261.46875 665.15ZM261.46875 662.1188L261.46875 658.2594L258.78125 662.1188L261.46875 662.1188ZM265.6875 665.15L265.6875 663.9469L266.89062 663.9469L266.89062 665.15L265.6875 665.15ZM273.5625 658.66565L272.51562 658.7438Q272.375 658.1188 272.125 657.8375Q271.6875 657.3844 271.0625 657.3844Q270.5625 657.3844 270.17188 657.66565Q269.6875 658.04065 269.39062 658.7438Q269.10938 659.4313 269.09375 660.7125Q269.46875 660.1344 270.01562 659.85315Q270.57812 659.5719 271.1875 659.5719Q272.23438 659.5719 272.96875 660.35315Q273.71875 661.1344 273.71875 662.35315Q273.71875 663.16565 273.35938 663.8688Q273.01562 664.5563 272.40625 664.9313Q271.79688 665.29065 271.03125 665.29065Q269.70312 665.29065 268.875 664.3219Q268.04688 663.35315 268.04688 661.1344Q268.04688 658.6344 268.96875 657.5094Q269.76562 656.525 271.125 656.525Q272.14062 656.525 272.78125 657.10315Q273.4375 657.66565 273.5625 658.66565ZM269.26562 662.3688Q269.26562 662.91565 269.48438 663.41565Q269.71875 663.9 270.125 664.16565Q270.54688 664.4313 271.01562 664.4313Q271.67188 664.4313 272.15625 663.9Q272.64062 663.35315 272.64062 662.4313Q272.64062 661.54065 272.15625 661.025Q271.6875 660.5094 270.96875 660.5094Q270.25 660.5094 269.75 661.025Q269.26562 661.54065 269.26562 662.3688ZM275.25 663.16565L276.26562 663.0719Q276.39062 663.79065 276.75 664.1188Q277.125 664.4313 277.6875 664.4313Q278.17188 664.4313 278.53125 664.2125Q278.90625 663.97815 279.14062 663.6188Q279.375 663.2438 279.53125 662.6188Q279.6875 661.97815 279.6875 661.3219Q279.6875 661.2438 279.6875 661.10315Q279.375 661.60315 278.82812 661.9313Q278.28125 662.2438 277.64062 662.2438Q276.5625 662.2438 275.82812 661.47815Q275.09375 660.6969 275.09375 659.4313Q275.09375 658.1188 275.85938 657.3219Q276.64062 656.525 277.79688 656.525Q278.625 656.525 279.3125 656.97815Q280.01562 657.4313 280.375 658.275Q280.73438 659.10315 280.73438 660.6813Q280.73438 662.3219 280.375 663.3063Q280.03125 664.275 279.3125 664.79065Q278.60938 665.29065 277.67188 665.29065Q276.65625 665.29065 276.01562 664.7438Q275.375 664.1813 275.25 663.16565ZM279.5625 659.3688Q279.5625 658.4625 279.07812 657.9313Q278.60938 657.4 277.92188 657.4Q277.21875 657.4 276.6875 657.97815Q276.17188 658.54065 276.17188 659.4625Q276.17188 660.275 276.67188 660.79065Q277.17188 661.3063 277.89062 661.3063Q278.625 661.3063 279.09375 660.79065Q279.5625 660.275 279.5625 659.3688Z" fill-rule="nonzero"/><path fill="#000000" d="M332.14374 658.66565L331.09686 658.7438Q330.95624 658.1188 330.70624 657.8375Q330.26874 657.3844 329.64374 657.3844Q329.14374 657.3844 328.7531 657.66565Q328.26874 658.04065 327.97186 658.7438Q327.6906 659.4313 327.675 660.7125Q328.05 660.1344 328.59686 659.85315Q329.15936 659.5719 329.76874 659.5719Q330.8156 659.5719 331.55 660.35315Q332.3 661.1344 332.3 662.35315Q332.3 663.16565 331.9406 663.8688Q331.59686 664.5563 330.9875 664.9313Q330.3781 665.29065 329.6125 665.29065Q328.28436 665.29065 327.45624 664.3219Q326.6281 663.35315 326.6281 661.1344Q326.6281 658.6344 327.55 657.5094Q328.34686 656.525 329.70624 656.525Q330.72186 656.525 331.3625 657.10315Q332.01874 657.66565 332.14374 658.66565ZM327.84686 662.3688Q327.84686 662.91565 328.0656 663.41565Q328.3 663.9 328.70624 664.16565Q329.1281 664.4313 329.59686 664.4313Q330.2531 664.4313 330.7375 663.9Q331.22186 663.35315 331.22186 662.4313Q331.22186 661.54065 330.7375 661.025Q330.26874 660.5094 329.55 660.5094Q328.83124 660.5094 328.33124 661.025Q327.84686 661.54065 327.84686 662.3688ZM334.26874 665.15L334.26874 663.9469L335.47186 663.9469L335.47186 665.15L334.26874 665.15ZM342.22186 664.1344L342.22186 665.15L336.53436 665.15Q336.53436 664.775 336.65936 664.41565Q336.8781 663.8375 337.34686 663.275Q337.83124 662.7125 338.7375 661.97815Q340.14374 660.8219 340.6281 660.15Q341.1281 659.47815 341.1281 658.8844Q341.1281 658.2594 340.675 657.8375Q340.22186 657.4 339.5031 657.4Q338.7375 657.4 338.28436 657.85315Q337.83124 658.3063 337.8156 659.1188L336.7375 659.0094Q336.84686 657.79065 337.5656 657.16565Q338.3 656.525 339.53436 656.525Q340.76874 656.525 341.4875 657.2125Q342.20624 657.9 342.20624 658.91565Q342.20624 659.4313 341.9875 659.9313Q341.78436 660.41565 341.28436 660.97815Q340.8 661.525 339.675 662.47815Q338.72186 663.275 338.4406 663.5719Q338.175 663.85315 338.0031 664.1344L342.22186 664.1344ZM343.675 662.9L344.78436 662.8063Q344.90936 663.6188 345.34686 664.025Q345.8 664.4313 346.4406 664.4313Q347.1906 664.4313 347.72186 663.85315Q348.2531 663.275 348.2531 662.3375Q348.2531 661.4313 347.7375 660.91565Q347.2375 660.3844 346.40936 660.3844Q345.90936 660.3844 345.4875 660.6188Q345.08124 660.85315 344.84686 661.2125L343.8625 661.0875L344.6906 656.6813L348.97186 656.6813L348.97186 657.6813L345.53436 657.6813L345.08124 659.9938Q345.84686 659.4469 346.6906 659.4469Q347.8156 659.4469 348.58124 660.22815Q349.3625 661.0094 349.3625 662.2438Q349.3625 663.4 348.6906 664.2594Q347.8625 665.29065 346.4406 665.29065Q345.26874 665.29065 344.51874 664.6344Q343.78436 663.97815 343.675 662.9Z" fill-rule="nonzero"/><path fill="#000000" d="M395.31876 657.6813L395.31876 656.66565L400.88126 656.66565L400.88126 657.4938Q400.06876 658.3688 399.25626 659.8219Q398.45938 661.2594 398.02188 662.79065Q397.69376 663.8688 397.61563 665.15L396.52188 665.15Q396.5375 664.1344 396.9125 662.6969Q397.30313 661.2594 398.00626 659.9313Q398.725 658.60315 399.5375 657.6813L395.31876 657.6813ZM402.85 665.15L402.85 663.9469L404.05313 663.9469L404.05313 665.15L402.85 665.15ZM406.88126 660.4938Q406.225 660.2438 405.89688 659.8063Q405.58438 659.35315 405.58438 658.7438Q405.58438 657.8063 406.25626 657.16565Q406.94376 656.525 408.05313 656.525Q409.17813 656.525 409.86563 657.1813Q410.55313 657.8375 410.55313 658.775Q410.55313 659.3688 410.24063 659.8063Q409.92813 660.2438 409.2875 660.4938Q410.08438 660.7438 410.49063 661.3219Q410.89688 661.9 410.89688 662.6969Q410.89688 663.79065 410.11563 664.54065Q409.35 665.29065 408.06876 665.29065Q406.80313 665.29065 406.02188 664.54065Q405.24063 663.79065 405.24063 662.66565Q405.24063 661.8219 405.6625 661.2594Q406.1 660.6969 406.88126 660.4938ZM406.6625 658.6969Q406.6625 659.3063 407.05313 659.6969Q407.45938 660.0875 408.08438 660.0875Q408.69376 660.0875 409.08438 659.7125Q409.475 659.3219 409.475 658.7594Q409.475 658.1813 409.06876 657.79065Q408.6625 657.3844 408.06876 657.3844Q407.45938 657.3844 407.05313 657.775Q406.6625 658.16565 406.6625 658.6969ZM406.33438 662.66565Q406.33438 663.1188 406.5375 663.54065Q406.75626 663.9625 407.17813 664.1969Q407.6 664.4313 408.08438 664.4313Q408.83438 664.4313 409.31876 663.9469Q409.81876 663.4625 409.81876 662.7125Q409.81876 661.9469 409.31876 661.4469Q408.81876 660.9469 408.05313 660.9469Q407.30313 660.9469 406.81876 661.4469Q406.33438 661.9313 406.33438 662.66565ZM416.225 665.15L415.17813 665.15L415.17813 658.4313Q414.7875 658.79065 414.1625 659.16565Q413.55313 659.525 413.06876 659.6969L413.06876 658.6813Q413.94376 658.2594 414.6 657.6813Q415.27188 657.0875 415.55313 656.525L416.225 656.525L416.225 665.15Z" fill-rule="nonzero"/><path fill="#000000" d="M463.99374 663.16565L465.00937 663.0719Q465.13437 663.79065 465.49374 664.1188Q465.86874 664.4313 466.43124 664.4313Q466.91562 664.4313 467.275 664.2125Q467.65 663.97815 467.88437 663.6188Q468.11874 663.2438 468.275 662.6188Q468.43124 661.97815 468.43124 661.3219Q468.43124 661.2438 468.43124 661.10315Q468.11874 661.60315 467.57187 661.9313Q467.025 662.2438 466.38437 662.2438Q465.30624 662.2438 464.57187 661.47815Q463.8375 660.6969 463.8375 659.4313Q463.8375 658.1188 464.60312 657.3219Q465.38437 656.525 466.54062 656.525Q467.36874 656.525 468.05624 656.97815Q468.75937 657.4313 469.11874 658.275Q469.47812 659.10315 469.47812 660.6813Q469.47812 662.3219 469.11874 663.3063Q468.775 664.275 468.05624 664.79065Q467.35312 665.29065 466.41562 665.29065Q465.4 665.29065 464.75937 664.7438Q464.11874 664.1813 463.99374 663.16565ZM468.30624 659.3688Q468.30624 658.4625 467.82187 657.9313Q467.35312 657.4 466.66562 657.4Q465.9625 657.4 465.43124 657.97815Q464.91562 658.54065 464.91562 659.4625Q464.91562 660.275 465.41562 660.79065Q465.91562 661.3063 466.63437 661.3063Q467.36874 661.3063 467.8375 660.79065Q468.30624 660.275 468.30624 659.3688ZM471.43124 665.15L471.43124 663.9469L472.63437 663.9469L472.63437 665.15L471.43124 665.15ZM473.8375 662.8844L474.9 662.7438Q475.07187 663.6344 475.50937 664.04065Q475.94687 664.4313 476.57187 664.4313Q477.32187 664.4313 477.8375 663.91565Q478.35312 663.4 478.35312 662.6344Q478.35312 661.91565 477.86874 661.4469Q477.4 660.9625 476.66562 660.9625Q476.36874 660.9625 475.91562 661.0875L476.04062 660.15Q476.15 660.16565 476.2125 660.16565Q476.88437 660.16565 477.41562 659.8219Q477.9625 659.4625 477.9625 658.72815Q477.9625 658.15 477.57187 657.775Q477.18124 657.3844 476.55624 657.3844Q475.94687 657.3844 475.525 657.775Q475.11874 658.16565 475.00937 658.9313L473.94687 658.7438Q474.13437 657.6969 474.82187 657.1188Q475.50937 656.525 476.525 656.525Q477.22812 656.525 477.82187 656.8375Q478.41562 657.1344 478.72812 657.65Q479.04062 658.16565 479.04062 658.7594Q479.04062 659.3063 478.74374 659.775Q478.44687 660.22815 477.86874 660.4938Q478.61874 660.66565 479.04062 661.22815Q479.4625 661.775 479.4625 662.6188Q479.4625 663.7438 478.63437 664.525Q477.82187 665.3063 476.57187 665.3063Q475.44687 665.3063 474.69687 664.6344Q473.94687 663.9469 473.8375 662.8844ZM482.4625 660.4938Q481.80624 660.2438 481.47812 659.8063Q481.16562 659.35315 481.16562 658.7438Q481.16562 657.8063 481.8375 657.16565Q482.525 656.525 483.63437 656.525Q484.75937 656.525 485.44687 657.1813Q486.13437 657.8375 486.13437 658.775Q486.13437 659.3688 485.82187 659.8063Q485.50937 660.2438 484.86874 660.4938Q485.66562 660.7438 486.07187 661.3219Q486.47812 661.9 486.47812 662.6969Q486.47812 663.79065 485.69687 664.54065Q484.93124 665.29065 483.65 665.29065Q482.38437 665.29065 481.60312 664.54065Q480.82187 663.79065 480.82187 662.66565Q480.82187 661.8219 481.24374 661.2594Q481.68124 660.6969 482.4625 660.4938ZM482.24374 658.6969Q482.24374 659.3063 482.63437 659.6969Q483.04062 660.0875 483.66562 660.0875Q484.275 660.0875 484.66562 659.7125Q485.05624 659.3219 485.05624 658.7594Q485.05624 658.1813 484.65 657.79065Q484.24374 657.3844 483.65 657.3844Q483.04062 657.3844 482.63437 657.775Q482.24374 658.16565 482.24374 658.6969ZM481.91562 662.66565Q481.91562 663.1188 482.11874 663.54065Q482.3375 663.9625 482.75937 664.1969Q483.18124 664.4313 483.66562 664.4313Q484.41562 664.4313 484.9 663.9469Q485.4 663.4625 485.4 662.7125Q485.4 661.9469 484.9 661.4469Q484.4 660.9469 483.63437 660.9469Q482.88437 660.9469 482.4 661.4469Q481.91562 661.9313 481.91562 662.66565Z" fill-rule="nonzero"/><path fill="#000000" d="M532.8875 665.15L531.84064 665.15L531.84064 658.4313Q531.45 658.79065 530.825 659.16565Q530.21564 659.525 529.73126 659.6969L529.73126 658.6813Q530.60626 658.2594 531.2625 657.6813Q531.9344 657.0875 532.21564 656.525L532.8875 656.525L532.8875 665.15ZM535.91876 660.91565Q535.91876 659.3844 536.23126 658.4625Q536.54376 657.525 537.15314 657.025Q537.77814 656.525 538.71564 656.525Q539.40314 656.525 539.91876 656.8063Q540.45 657.0875 540.79376 657.6188Q541.1375 658.1344 541.325 658.8844Q541.5125 659.6344 541.5125 660.91565Q541.5125 662.4313 541.2 663.35315Q540.90314 664.275 540.27814 664.79065Q539.66876 665.29065 538.71564 665.29065Q537.48126 665.29065 536.7625 664.4Q535.91876 663.3375 535.91876 660.91565ZM536.9969 660.91565Q536.9969 663.025 537.4969 663.72815Q537.9969 664.4313 538.71564 664.4313Q539.45 664.4313 539.9344 663.72815Q540.4344 663.025 540.4344 660.91565Q540.4344 658.79065 539.9344 658.10315Q539.45 657.4 538.7 657.4Q537.98126 657.4 537.54376 658.0094Q536.9969 658.79065 536.9969 660.91565ZM543.5125 665.15L543.5125 663.9469L544.71564 663.9469L544.71564 665.15L543.5125 665.15ZM546.075 663.16565L547.09064 663.0719Q547.21564 663.79065 547.575 664.1188Q547.95 664.4313 548.5125 664.4313Q548.9969 664.4313 549.35626 664.2125Q549.73126 663.97815 549.96564 663.6188Q550.2 663.2438 550.35626 662.6188Q550.5125 661.97815 550.5125 661.3219Q550.5125 661.2438 550.5125 661.10315Q550.2 661.60315 549.65314 661.9313Q549.10626 662.2438 548.46564 662.2438Q547.3875 662.2438 546.65314 661.47815Q545.91876 660.6969 545.91876 659.4313Q545.91876 658.1188 546.6844 657.3219Q547.46564 656.525 548.6219 656.525Q549.45 656.525 550.1375 656.97815Q550.84064 657.4313 551.2 658.275Q551.5594 659.10315 551.5594 660.6813Q551.5594 662.3219 551.2 663.3063Q550.85626 664.275 550.1375 664.79065Q549.4344 665.29065 548.4969 665.29065Q547.48126 665.29065 546.84064 664.7438Q546.2 664.1813 546.075 663.16565ZM550.3875 659.3688Q550.3875 658.4625 549.90314 657.9313Q549.4344 657.4 548.7469 657.4Q548.04376 657.4 547.5125 657.97815Q546.9969 658.54065 546.9969 659.4625Q546.9969 660.275 547.4969 660.79065Q547.9969 661.3063 548.71564 661.3063Q549.45 661.3063 549.91876 660.79065Q550.3875 660.275 550.3875 659.3688ZM556.29376 665.15L556.29376 663.0875L552.575 663.0875L552.575 662.1188L556.4969 656.5563L557.35626 656.5563L557.35626 662.1188L558.5125 662.1188L558.5125 663.0875L557.35626 663.0875L557.35626 665.15L556.29376 665.15ZM556.29376 662.1188L556.29376 658.2594L553.60626 662.1188L556.29376 662.1188Z" fill-rule="nonzero"/><path fill="#000000" d="M601.46875 665.15L600.4219 665.15L600.4219 658.4313Q600.03125 658.79065 599.40625 659.16565Q598.7969 659.525 598.3125 659.6969L598.3125 658.6813Q599.1875 658.2594 599.84375 657.6813Q600.5156 657.0875 600.7969 656.525L601.46875 656.525L601.46875 665.15ZM610.0469 664.1344L610.0469 665.15L604.3594 665.15Q604.3594 664.775 604.4844 664.41565Q604.7031 663.8375 605.1719 663.275Q605.65625 662.7125 606.5625 661.97815Q607.96875 660.8219 608.4531 660.15Q608.9531 659.47815 608.9531 658.8844Q608.9531 658.2594 608.5 657.8375Q608.0469 657.4 607.3281 657.4Q606.5625 657.4 606.1094 657.85315Q605.65625 658.3063 605.6406 659.1188L604.5625 659.0094Q604.6719 657.79065 605.3906 657.16565Q606.125 656.525 607.3594 656.525Q608.59375 656.525 609.3125 657.2125Q610.03125 657.9 610.03125 658.91565Q610.03125 659.4313 609.8125 659.9313Q609.6094 660.41565 609.1094 660.97815Q608.625 661.525 607.5 662.47815Q606.5469 663.275 606.2656 663.5719Q606.0 663.85315 605.8281 664.1344L610.0469 664.1344ZM612.09375 665.15L612.09375 663.9469L613.2969 663.9469L613.2969 665.15L612.09375 665.15ZM614.5 662.9L615.6094 662.8063Q615.7344 663.6188 616.1719 664.025Q616.625 664.4313 617.2656 664.4313Q618.0156 664.4313 618.5469 663.85315Q619.0781 663.275 619.0781 662.3375Q619.0781 661.4313 618.5625 660.91565Q618.0625 660.3844 617.2344 660.3844Q616.7344 660.3844 616.3125 660.6188Q615.90625 660.85315 615.6719 661.2125L614.6875 661.0875L615.5156 656.6813L619.7969 656.6813L619.7969 657.6813L616.3594 657.6813L615.90625 659.9938Q616.6719 659.4469 617.5156 659.4469Q618.6406 659.4469 619.40625 660.22815Q620.1875 661.0094 620.1875 662.2438Q620.1875 663.4 619.5156 664.2594Q618.6875 665.29065 617.2656 665.29065Q616.09375 665.29065 615.34375 664.6344Q614.6094 663.97815 614.5 662.9ZM621.5 660.91565Q621.5 659.3844 621.8125 658.4625Q622.125 657.525 622.7344 657.025Q623.3594 656.525 624.2969 656.525Q624.9844 656.525 625.5 656.8063Q626.03125 657.0875 626.375 657.6188Q626.71875 658.1344 626.90625 658.8844Q627.09375 659.6344 627.09375 660.91565Q627.09375 662.4313 626.78125 663.35315Q626.4844 664.275 625.8594 664.79065Q625.25 665.29065 624.2969 665.29065Q623.0625 665.29065 622.34375 664.4Q621.5 663.3375 621.5 660.91565ZM622.5781 660.91565Q622.5781 663.025 623.0781 663.72815Q623.5781 664.4313 624.2969 664.4313Q625.03125 664.4313 625.5156 663.72815Q626.0156 663.025 626.0156 660.91565Q626.0156 658.79065 625.5156 658.10315Q625.03125 657.4 624.28125 657.4Q623.5625 657.4 623.125 658.0094Q622.5781 658.79065 622.5781 660.91565Z" fill-rule="nonzero"/><path fill="#000000" d="M670.05 665.15L669.0031 665.15L669.0031 658.4313Q668.6125 658.79065 667.9875 659.16565Q667.3781 659.525 666.89374 659.6969L666.89374 658.6813Q667.76874 658.2594 668.425 657.6813Q669.09686 657.0875 669.3781 656.525L670.05 656.525L670.05 665.15ZM676.45624 665.15L676.45624 663.0875L672.7375 663.0875L672.7375 662.1188L676.65936 656.5563L677.51874 656.5563L677.51874 662.1188L678.675 662.1188L678.675 663.0875L677.51874 663.0875L677.51874 665.15L676.45624 665.15ZM676.45624 662.1188L676.45624 658.2594L673.76874 662.1188L676.45624 662.1188ZM680.675 665.15L680.675 663.9469L681.8781 663.9469L681.8781 665.15L680.675 665.15ZM683.08124 660.91565Q683.08124 659.3844 683.39374 658.4625Q683.70624 657.525 684.3156 657.025Q684.9406 656.525 685.8781 656.525Q686.5656 656.525 687.08124 656.8063Q687.6125 657.0875 687.95624 657.6188Q688.3 658.1344 688.4875 658.8844Q688.675 659.6344 688.675 660.91565Q688.675 662.4313 688.3625 663.35315Q688.0656 664.275 687.4406 664.79065Q686.83124 665.29065 685.8781 665.29065Q684.64374 665.29065 683.925 664.4Q683.08124 663.3375 683.08124 660.91565ZM684.15936 660.91565Q684.15936 663.025 684.65936 663.72815Q685.15936 664.4313 685.8781 664.4313Q686.6125 664.4313 687.09686 663.72815Q687.59686 663.025 687.59686 660.91565Q687.59686 658.79065 687.09686 658.10315Q686.6125 657.4 685.8625 657.4Q685.14374 657.4 684.70624 658.0094Q684.15936 658.79065 684.15936 660.91565ZM695.55 658.66565L694.5031 658.7438Q694.3625 658.1188 694.1125 657.8375Q693.675 657.3844 693.05 657.3844Q692.55 657.3844 692.15936 657.66565Q691.675 658.04065 691.3781 658.7438Q691.09686 659.4313 691.08124 660.7125Q691.45624 660.1344 692.0031 659.85315Q692.5656 659.5719 693.175 659.5719Q694.22186 659.5719 694.95624 660.35315Q695.70624 661.1344 695.70624 662.35315Q695.70624 663.16565 695.34686 663.8688Q695.0031 664.5563 694.39374 664.9313Q693.78436 665.29065 693.01874 665.29065Q691.6906 665.29065 690.8625 664.3219Q690.03436 663.35315 690.03436 661.1344Q690.03436 658.6344 690.95624 657.5094Q691.7531 656.525 693.1125 656.525Q694.1281 656.525 694.76874 657.10315Q695.425 657.66565 695.55 658.66565ZM691.2531 662.3688Q691.2531 662.91565 691.47186 663.41565Q691.70624 663.9 692.1125 664.16565Q692.53436 664.4313 693.0031 664.4313Q693.65936 664.4313 694.14374 663.9Q694.6281 663.35315 694.6281 662.4313Q694.6281 661.54065 694.14374 661.025Q693.675 660.5094 692.95624 660.5094Q692.2375 660.5094 691.7375 661.025Q691.2531 661.54065 691.2531 662.3688Z" fill-rule="nonzero"/><path fill="#000000" d="M738.6312 665.15L737.58435 665.15L737.58435 658.4313Q737.1937 658.79065 736.5687 659.16565Q735.95935 659.525 735.475 659.6969L735.475 658.6813Q736.35 658.2594 737.0062 657.6813Q737.6781 657.0875 737.95935 656.525L738.6312 656.525L738.6312 665.15ZM741.6625 662.9L742.77185 662.8063Q742.89685 663.6188 743.33435 664.025Q743.7875 664.4313 744.4281 664.4313Q745.1781 664.4313 745.70935 663.85315Q746.2406 663.275 746.2406 662.3375Q746.2406 661.4313 745.725 660.91565Q745.225 660.3844 744.39685 660.3844Q743.89685 660.3844 743.475 660.6188Q743.0687 660.85315 742.83435 661.2125L741.85 661.0875L742.6781 656.6813L746.95935 656.6813L746.95935 657.6813L743.52185 657.6813L743.0687 659.9938Q743.83435 659.4469 744.6781 659.4469Q745.8031 659.4469 746.5687 660.22815Q747.35 661.0094 747.35 662.2438Q747.35 663.4 746.6781 664.2594Q745.85 665.29065 744.4281 665.29065Q743.2562 665.29065 742.5062 664.6344Q741.77185 663.97815 741.6625 662.9ZM749.2562 665.15L749.2562 663.9469L750.45935 663.9469L750.45935 665.15L749.2562 665.15ZM757.1312 658.66565L756.08435 658.7438Q755.9437 658.1188 755.6937 657.8375Q755.2562 657.3844 754.6312 657.3844Q754.1312 657.3844 753.7406 657.66565Q753.2562 658.04065 752.95935 658.7438Q752.6781 659.4313 752.6625 660.7125Q753.0375 660.1344 753.58435 659.85315Q754.14685 659.5719 754.7562 659.5719Q755.8031 659.5719 756.5375 660.35315Q757.2875 661.1344 757.2875 662.35315Q757.2875 663.16565 756.9281 663.8688Q756.58435 664.5563 755.975 664.9313Q755.3656 665.29065 754.6 665.29065Q753.27185 665.29065 752.4437 664.3219Q751.6156 663.35315 751.6156 661.1344Q751.6156 658.6344 752.5375 657.5094Q753.33435 656.525 754.6937 656.525Q755.70935 656.525 756.35 657.10315Q757.0062 657.66565 757.1312 658.66565ZM752.83435 662.3688Q752.83435 662.91565 753.0531 663.41565Q753.2875 663.9 753.6937 664.16565Q754.1156 664.4313 754.58435 664.4313Q755.2406 664.4313 755.725 663.9Q756.20935 663.35315 756.20935 662.4313Q756.20935 661.54065 755.725 661.025Q755.2562 660.5094 754.5375 660.5094Q753.8187 660.5094 753.3187 661.025Q752.83435 661.54065 752.83435 662.3688ZM758.6625 662.8844L759.725 662.7438Q759.89685 663.6344 760.33435 664.04065Q760.77185 664.4313 761.39685 664.4313Q762.14685 664.4313 762.6625 663.91565Q763.1781 663.4 763.1781 662.6344Q763.1781 661.91565 762.6937 661.4469Q762.225 660.9625 761.4906 660.9625Q761.1937 660.9625 760.7406 661.0875L760.8656 660.15Q760.975 660.16565 761.0375 660.16565Q761.70935 660.16565 762.2406 659.8219Q762.7875 659.4625 762.7875 658.72815Q762.7875 658.15 762.39685 657.775Q762.0062 657.3844 761.3812 657.3844Q760.77185 657.3844 760.35 657.775Q759.9437 658.16565 759.83435 658.9313L758.77185 658.7438Q758.95935 657.6969 759.64685 657.1188Q760.33435 656.525 761.35 656.525Q762.0531 656.525 762.64685 656.8375Q763.2406 657.1344 763.5531 657.65Q763.8656 658.16565 763.8656 658.7594Q763.8656 659.3063 763.5687 659.775Q763.27185 660.22815 762.6937 660.4938Q763.4437 660.66565 763.8656 661.22815Q764.2875 661.775 764.2875 662.6188Q764.2875 663.7438 763.45935 664.525Q762.64685 665.3063 761.39685 665.3063Q760.27185 665.3063 759.52185 664.6344Q758.77185 663.9469 758.6625 662.8844Z" fill-rule="nonzero"/><path fill="#000000" d="M807.2125 665.15L806.16565 665.15L806.16565 658.4313Q805.775 658.79065 805.15 659.16565Q804.54065 659.525 804.0563 659.6969L804.0563 658.6813Q804.9313 658.2594 805.5875 657.6813Q806.2594 657.0875 806.54065 656.525L807.2125 656.525L807.2125 665.15ZM810.3063 657.6813L810.3063 656.66565L815.8688 656.66565L815.8688 657.4938Q815.0563 658.3688 814.2438 659.8219Q813.4469 661.2594 813.0094 662.79065Q812.6813 663.8688 812.60315 665.15L811.5094 665.15Q811.525 664.1344 811.9 662.6969Q812.29065 661.2594 812.9938 659.9313Q813.7125 658.60315 814.525 657.6813L810.3063 657.6813ZM817.8375 665.15L817.8375 663.9469L819.04065 663.9469L819.04065 665.15L817.8375 665.15ZM824.2125 665.15L823.16565 665.15L823.16565 658.4313Q822.775 658.79065 822.15 659.16565Q821.54065 659.525 821.0563 659.6969L821.0563 658.6813Q821.9313 658.2594 822.5875 657.6813Q823.2594 657.0875 823.54065 656.525L824.2125 656.525L824.2125 665.15ZM827.4 663.16565L828.41565 663.0719Q828.54065 663.79065 828.9 664.1188Q829.275 664.4313 829.8375 664.4313Q830.3219 664.4313 830.6813 664.2125Q831.0563 663.97815 831.29065 663.6188Q831.525 663.2438 831.6813 662.6188Q831.8375 661.97815 831.8375 661.3219Q831.8375 661.2438 831.8375 661.10315Q831.525 661.60315 830.97815 661.9313Q830.4313 662.2438 829.79065 662.2438Q828.7125 662.2438 827.97815 661.47815Q827.2438 660.6969 827.2438 659.4313Q827.2438 658.1188 828.0094 657.3219Q828.79065 656.525 829.9469 656.525Q830.775 656.525 831.4625 656.97815Q832.16565 657.4313 832.525 658.275Q832.8844 659.10315 832.8844 660.6813Q832.8844 662.3219 832.525 663.3063Q832.1813 664.275 831.4625 664.79065Q830.7594 665.29065 829.8219 665.29065Q828.8063 665.29065 828.16565 664.7438Q827.525 664.1813 827.4 663.16565ZM831.7125 659.3688Q831.7125 658.4625 831.22815 657.9313Q830.7594 657.4 830.0719 657.4Q829.3688 657.4 828.8375 657.97815Q828.3219 658.54065 828.3219 659.4625Q828.3219 660.275 828.8219 660.79065Q829.3219 661.3063 830.04065 661.3063Q830.775 661.3063 831.2438 660.79065Q831.7125 660.275 831.7125 659.3688Z" fill-rule="nonzero"/><path fill="#000000" d="M875.79376 665.15L874.7469 665.15L874.7469 658.4313Q874.35626 658.79065 873.73126 659.16565Q873.1219 659.525 872.6375 659.6969L872.6375 658.6813Q873.5125 658.2594 874.16876 657.6813Q874.84064 657.0875 875.1219 656.525L875.79376 656.525L875.79376 665.15ZM880.45 660.4938Q879.79376 660.2438 879.46564 659.8063Q879.15314 659.35315 879.15314 658.7438Q879.15314 657.8063 879.825 657.16565Q880.5125 656.525 881.6219 656.525Q882.7469 656.525 883.4344 657.1813Q884.1219 657.8375 884.1219 658.775Q884.1219 659.3688 883.8094 659.8063Q883.4969 660.2438 882.85626 660.4938Q883.65314 660.7438 884.0594 661.3219Q884.46564 661.9 884.46564 662.6969Q884.46564 663.79065 883.6844 664.54065Q882.91876 665.29065 881.6375 665.29065Q880.3719 665.29065 879.59064 664.54065Q878.8094 663.79065 878.8094 662.66565Q878.8094 661.8219 879.23126 661.2594Q879.66876 660.6969 880.45 660.4938ZM880.23126 658.6969Q880.23126 659.3063 880.6219 659.6969Q881.02814 660.0875 881.65314 660.0875Q882.2625 660.0875 882.65314 659.7125Q883.04376 659.3219 883.04376 658.7594Q883.04376 658.1813 882.6375 657.79065Q882.23126 657.3844 881.6375 657.3844Q881.02814 657.3844 880.6219 657.775Q880.23126 658.16565 880.23126 658.6969ZM879.90314 662.66565Q879.90314 663.1188 880.10626 663.54065Q880.325 663.9625 880.7469 664.1969Q881.16876 664.4313 881.65314 664.4313Q882.40314 664.4313 882.8875 663.9469Q883.3875 663.4625 883.3875 662.7125Q883.3875 661.9469 882.8875 661.4469Q882.3875 660.9469 881.6219 660.9469Q880.8719 660.9469 880.3875 661.4469Q879.90314 661.9313 879.90314 662.66565ZM886.41876 665.15L886.41876 663.9469L887.6219 663.9469L887.6219 665.15L886.41876 665.15ZM888.8875 657.6813L888.8875 656.66565L894.45 656.66565L894.45 657.4938Q893.6375 658.3688 892.825 659.8219Q892.02814 661.2594 891.59064 662.79065Q891.2625 663.8688 891.1844 665.15L890.09064 665.15Q890.10626 664.1344 890.48126 662.6969Q890.8719 661.2594 891.575 659.9313Q892.29376 658.60315 893.10626 657.6813L888.8875 657.6813ZM895.825 662.9L896.9344 662.8063Q897.0594 663.6188 897.4969 664.025Q897.95 664.4313 898.59064 664.4313Q899.34064 664.4313 899.8719 663.85315Q900.40314 663.275 900.40314 662.3375Q900.40314 661.4313 899.8875 660.91565Q899.3875 660.3844 898.5594 660.3844Q898.0594 660.3844 897.6375 660.6188Q897.23126 660.85315 896.9969 661.2125L896.0125 661.0875L896.84064 656.6813L901.1219 656.6813L901.1219 657.6813L897.6844 657.6813L897.23126 659.9938Q897.9969 659.4469 898.84064 659.4469Q899.96564 659.4469 900.73126 660.22815Q901.5125 661.0094 901.5125 662.2438Q901.5125 663.4 900.84064 664.2594Q900.0125 665.29065 898.59064 665.29065Q897.41876 665.29065 896.66876 664.6344Q895.9344 663.97815 895.825 662.9Z" fill-rule="nonzero"/><path fill="#000000" d="M945.9531 664.1344L945.9531 665.15L940.2656 665.15Q940.2656 664.775 940.3906 664.41565Q940.6094 663.8375 941.0781 663.275Q941.5625 662.7125 942.46875 661.97815Q943.875 660.8219 944.3594 660.15Q944.8594 659.47815 944.8594 658.8844Q944.8594 658.2594 944.40625 657.8375Q943.9531 657.4 943.2344 657.4Q942.46875 657.4 942.0156 657.85315Q941.5625 658.3063 941.5469 659.1188L940.46875 659.0094Q940.5781 657.79065 941.2969 657.16565Q942.03125 656.525 943.2656 656.525Q944.5 656.525 945.21875 657.2125Q945.9375 657.9 945.9375 658.91565Q945.9375 659.4313 945.71875 659.9313Q945.5156 660.41565 945.0156 660.97815Q944.53125 661.525 943.40625 662.47815Q942.4531 663.275 942.1719 663.5719Q941.90625 663.85315 941.7344 664.1344L945.9531 664.1344ZM947.40625 660.91565Q947.40625 659.3844 947.71875 658.4625Q948.03125 657.525 948.6406 657.025Q949.2656 656.525 950.2031 656.525Q950.8906 656.525 951.40625 656.8063Q951.9375 657.0875 952.28125 657.6188Q952.625 658.1344 952.8125 658.8844Q953.0 659.6344 953.0 660.91565Q953.0 662.4313 952.6875 663.35315Q952.3906 664.275 951.7656 664.79065Q951.15625 665.29065 950.2031 665.29065Q948.96875 665.29065 948.25 664.4Q947.40625 663.3375 947.40625 660.91565ZM948.4844 660.91565Q948.4844 663.025 948.9844 663.72815Q949.4844 664.4313 950.2031 664.4313Q950.9375 664.4313 951.4219 663.72815Q951.9219 663.025 951.9219 660.91565Q951.9219 658.79065 951.4219 658.10315Q950.9375 657.4 950.1875 657.4Q949.46875 657.4 949.03125 658.0094Q948.4844 658.79065 948.4844 660.91565ZM955.0 665.15L955.0 663.9469L956.2031 663.9469L956.2031 665.15L955.0 665.15ZM957.40625 662.8844L958.46875 662.7438Q958.6406 663.6344 959.0781 664.04065Q959.5156 664.4313 960.1406 664.4313Q960.8906 664.4313 961.40625 663.91565Q961.9219 663.4 961.9219 662.6344Q961.9219 661.91565 961.4375 661.4469Q960.96875 660.9625 960.2344 660.9625Q959.9375 660.9625 959.4844 661.0875L959.6094 660.15Q959.71875 660.16565 959.78125 660.16565Q960.4531 660.16565 960.9844 659.8219Q961.53125 659.4625 961.53125 658.72815Q961.53125 658.15 961.1406 657.775Q960.75 657.3844 960.125 657.3844Q959.5156 657.3844 959.09375 657.775Q958.6875 658.16565 958.5781 658.9313L957.5156 658.7438Q957.7031 657.6969 958.3906 657.1188Q959.0781 656.525 960.09375 656.525Q960.7969 656.525 961.3906 656.8375Q961.9844 657.1344 962.2969 657.65Q962.6094 658.16565 962.6094 658.7594Q962.6094 659.3063 962.3125 659.775Q962.0156 660.22815 961.4375 660.4938Q962.1875 660.66565 962.6094 661.22815Q963.03125 661.775 963.03125 662.6188Q963.03125 663.7438 962.2031 664.525Q961.3906 665.3063 960.1406 665.3063Q959.0156 665.3063 958.2656 664.6344Q957.5156 663.9469 957.40625 662.8844ZM968.375 665.15L967.3281 665.15L967.3281 658.4313Q966.9375 658.79065 966.3125 659.16565Q965.7031 659.525 965.21875 659.6969L965.21875 658.6813Q966.09375 658.2594 966.75 657.6813Q967.4219 657.0875 967.7031 656.525L968.375 656.525L968.375 665.15Z" fill-rule="nonzero"/><path fill="#000000" d="M1014.53436 664.1344L1014.53436 665.15L1008.84686 665.15Q1008.84686 664.775 1008.97186 664.41565Q1009.1906 663.8375 1009.65936 663.275Q1010.14374 662.7125 1011.05 661.97815Q1012.45624 660.8219 1012.9406 660.15Q1013.4406 659.47815 1013.4406 658.8844Q1013.4406 658.2594 1012.9875 657.8375Q1012.53436 657.4 1011.8156 657.4Q1011.05 657.4 1010.59686 657.85315Q1010.14374 658.3063 1010.1281 659.1188L1009.05 659.0094Q1009.15936 657.79065 1009.8781 657.16565Q1010.6125 656.525 1011.84686 656.525Q1013.08124 656.525 1013.8 657.2125Q1014.51874 657.9 1014.51874 658.91565Q1014.51874 659.4313 1014.3 659.9313Q1014.09686 660.41565 1013.59686 660.97815Q1013.1125 661.525 1011.9875 662.47815Q1011.03436 663.275 1010.7531 663.5719Q1010.4875 663.85315 1010.3156 664.1344L1014.53436 664.1344ZM1019.95624 665.15L1018.90936 665.15L1018.90936 658.4313Q1018.51874 658.79065 1017.89374 659.16565Q1017.28436 659.525 1016.8 659.6969L1016.8 658.6813Q1017.675 658.2594 1018.33124 657.6813Q1019.0031 657.0875 1019.28436 656.525L1019.95624 656.525L1019.95624 665.15ZM1023.58124 665.15L1023.58124 663.9469L1024.7844 663.9469L1024.7844 665.15L1023.58124 665.15ZM1027.6125 660.4938Q1026.9563 660.2438 1026.6282 659.8063Q1026.3157 659.35315 1026.3157 658.7438Q1026.3157 657.8063 1026.9875 657.16565Q1027.675 656.525 1028.7844 656.525Q1029.9094 656.525 1030.5969 657.1813Q1031.2844 657.8375 1031.2844 658.775Q1031.2844 659.3688 1030.9719 659.8063Q1030.6594 660.2438 1030.0188 660.4938Q1030.8157 660.7438 1031.2219 661.3219Q1031.6282 661.9 1031.6282 662.6969Q1031.6282 663.79065 1030.8469 664.54065Q1030.0813 665.29065 1028.8 665.29065Q1027.5344 665.29065 1026.7532 664.54065Q1025.9719 663.79065 1025.9719 662.66565Q1025.9719 661.8219 1026.3938 661.2594Q1026.8313 660.6969 1027.6125 660.4938ZM1027.3938 658.6969Q1027.3938 659.3063 1027.7844 659.6969Q1028.1907 660.0875 1028.8157 660.0875Q1029.425 660.0875 1029.8157 659.7125Q1030.2063 659.3219 1030.2063 658.7594Q1030.2063 658.1813 1029.8 657.79065Q1029.3938 657.3844 1028.8 657.3844Q1028.1907 657.3844 1027.7844 657.775Q1027.3938 658.16565 1027.3938 658.6969ZM1027.0657 662.66565Q1027.0657 663.1188 1027.2688 663.54065Q1027.4875 663.9625 1027.9094 664.1969Q1028.3313 664.4313 1028.8157 664.4313Q1029.5657 664.4313 1030.05 663.9469Q1030.55 663.4625 1030.55 662.7125Q1030.55 661.9469 1030.05 661.4469Q1029.55 660.9469 1028.7844 660.9469Q1028.0344 660.9469 1027.55 661.4469Q1027.0657 661.9313 1027.0657 662.66565ZM1034.6125 660.4938Q1033.9563 660.2438 1033.6282 659.8063Q1033.3157 659.35315 1033.3157 658.7438Q1033.3157 657.8063 1033.9875 657.16565Q1034.675 656.525 1035.7844 656.525Q1036.9094 656.525 1037.5969 657.1813Q1038.2844 657.8375 1038.2844 658.775Q1038.2844 659.3688 1037.9719 659.8063Q1037.6594 660.2438 1037.0188 660.4938Q1037.8157 660.7438 1038.2219 661.3219Q1038.6282 661.9 1038.6282 662.6969Q1038.6282 663.79065 1037.8469 664.54065Q1037.0813 665.29065 1035.8 665.29065Q1034.5344 665.29065 1033.7532 664.54065Q1032.9719 663.79065 1032.9719 662.66565Q1032.9719 661.8219 1033.3938 661.2594Q1033.8313 660.6969 1034.6125 660.4938ZM1034.3938 658.6969Q1034.3938 659.3063 1034.7844 659.6969Q1035.1907 660.0875 1035.8157 660.0875Q1036.425 660.0875 1036.8157 659.7125Q1037.2063 659.3219 1037.2063 658.7594Q1037.2063 658.1813 1036.8 657.79065Q1036.3938 657.3844 1035.8 657.3844Q1035.1907 657.3844 1034.7844 657.775Q1034.3938 658.16565 1034.3938 658.6969ZM1034.0657 662.66565Q1034.0657 663.1188 1034.2688 663.54065Q1034.4875 663.9625 1034.9094 664.1969Q1035.3313 664.4313 1035.8157 664.4313Q1036.5657 664.4313 1037.05 663.9469Q1037.55 663.4625 1037.55 662.7125Q1037.55 661.9469 1037.05 661.4469Q1036.55 660.9469 1035.7844 660.9469Q1035.0344 660.9469 1034.55 661.4469Q1034.0657 661.9313 1034.0657 662.66565Z" fill-rule="nonzero"/><path fill="#000000" d="M1083.1156 664.1344L1083.1156 665.15L1077.4281 665.15Q1077.4281 664.775 1077.5531 664.41565Q1077.7719 663.8375 1078.2406 663.275Q1078.725 662.7125 1079.6312 661.97815Q1081.0375 660.8219 1081.5219 660.15Q1082.0219 659.47815 1082.0219 658.8844Q1082.0219 658.2594 1081.5687 657.8375Q1081.1156 657.4 1080.3969 657.4Q1079.6312 657.4 1079.1781 657.85315Q1078.725 658.3063 1078.7094 659.1188L1077.6312 659.0094Q1077.7406 657.79065 1078.4594 657.16565Q1079.1937 656.525 1080.4281 656.525Q1081.6625 656.525 1082.3812 657.2125Q1083.1 657.9 1083.1 658.91565Q1083.1 659.4313 1082.8812 659.9313Q1082.6781 660.41565 1082.1781 660.97815Q1081.6937 661.525 1080.5687 662.47815Q1079.6156 663.275 1079.3344 663.5719Q1079.0687 663.85315 1078.8969 664.1344L1083.1156 664.1344ZM1084.5687 662.8844L1085.6312 662.7438Q1085.8031 663.6344 1086.2406 664.04065Q1086.6781 664.4313 1087.3031 664.4313Q1088.0531 664.4313 1088.5687 663.91565Q1089.0844 663.4 1089.0844 662.6344Q1089.0844 661.91565 1088.6 661.4469Q1088.1312 660.9625 1087.3969 660.9625Q1087.1 660.9625 1086.6469 661.0875L1086.7719 660.15Q1086.8812 660.16565 1086.9437 660.16565Q1087.6156 660.16565 1088.1469 659.8219Q1088.6937 659.4625 1088.6937 658.72815Q1088.6937 658.15 1088.3031 657.775Q1087.9125 657.3844 1087.2875 657.3844Q1086.6781 657.3844 1086.2562 657.775Q1085.85 658.16565 1085.7406 658.9313L1084.6781 658.7438Q1084.8656 657.6969 1085.5531 657.1188Q1086.2406 656.525 1087.2562 656.525Q1087.9594 656.525 1088.5531 656.8375Q1089.1469 657.1344 1089.4594 657.65Q1089.7719 658.16565 1089.7719 658.7594Q1089.7719 659.3063 1089.475 659.775Q1089.1781 660.22815 1088.6 660.4938Q1089.35 660.66565 1089.7719 661.22815Q1090.1937 661.775 1090.1937 662.6188Q1090.1937 663.7438 1089.3656 664.525Q1088.5531 665.3063 1087.3031 665.3063Q1086.1781 665.3063 1085.4281 664.6344Q1084.6781 663.9469 1084.5687 662.8844ZM1092.1625 665.15L1092.1625 663.9469L1093.3656 663.9469L1093.3656 665.15L1092.1625 665.15ZM1097.9437 665.15L1097.9437 663.0875L1094.225 663.0875L1094.225 662.1188L1098.1469 656.5563L1099.0062 656.5563L1099.0062 662.1188L1100.1625 662.1188L1100.1625 663.0875L1099.0062 663.0875L1099.0062 665.15L1097.9437 665.15ZM1097.9437 662.1188L1097.9437 658.2594L1095.2562 662.1188L1097.9437 662.1188ZM1104.9437 665.15L1104.9437 663.0875L1101.225 663.0875L1101.225 662.1188L1105.1469 656.5563L1106.0062 656.5563L1106.0062 662.1188L1107.1625 662.1188L1107.1625 663.0875L1106.0062 663.0875L1106.0062 665.15L1104.9437 665.15ZM1104.9437 662.1188L1104.9437 658.2594L1102.2562 662.1188L1104.9437 662.1188Z" fill-rule="nonzero"/><path fill="#000000" d="M1151.6969 664.1344L1151.6969 665.15L1146.0094 665.15Q1146.0094 664.775 1146.1344 664.41565Q1146.3531 663.8375 1146.8219 663.275Q1147.3063 662.7125 1148.2125 661.97815Q1149.6188 660.8219 1150.1031 660.15Q1150.6031 659.47815 1150.6031 658.8844Q1150.6031 658.2594 1150.15 657.8375Q1149.6969 657.4 1148.9781 657.4Q1148.2125 657.4 1147.7594 657.85315Q1147.3063 658.3063 1147.2906 659.1188L1146.2125 659.0094Q1146.3219 657.79065 1147.0406 657.16565Q1147.775 656.525 1149.0094 656.525Q1150.2438 656.525 1150.9625 657.2125Q1151.6813 657.9 1151.6813 658.91565Q1151.6813 659.4313 1151.4625 659.9313Q1151.2594 660.41565 1150.7594 660.97815Q1150.275 661.525 1149.15 662.47815Q1148.1969 663.275 1147.9156 663.5719Q1147.65 663.85315 1147.4781 664.1344L1151.6969 664.1344ZM1153.15 662.9L1154.2594 662.8063Q1154.3844 663.6188 1154.8219 664.025Q1155.275 664.4313 1155.9156 664.4313Q1156.6656 664.4313 1157.1969 663.85315Q1157.7281 663.275 1157.7281 662.3375Q1157.7281 661.4313 1157.2125 660.91565Q1156.7125 660.3844 1155.8844 660.3844Q1155.3844 660.3844 1154.9625 660.6188Q1154.5563 660.85315 1154.3219 661.2125L1153.3375 661.0875L1154.1656 656.6813L1158.4469 656.6813L1158.4469 657.6813L1155.0094 657.6813L1154.5563 659.9938Q1155.3219 659.4469 1156.1656 659.4469Q1157.2906 659.4469 1158.0563 660.22815Q1158.8375 661.0094 1158.8375 662.2438Q1158.8375 663.4 1158.1656 664.2594Q1157.3375 665.29065 1155.9156 665.29065Q1154.7438 665.29065 1153.9938 664.6344Q1153.2594 663.97815 1153.15 662.9ZM1160.7438 665.15L1160.7438 663.9469L1161.9469 663.9469L1161.9469 665.15L1160.7438 665.15ZM1163.15 660.91565Q1163.15 659.3844 1163.4625 658.4625Q1163.775 657.525 1164.3844 657.025Q1165.0094 656.525 1165.9469 656.525Q1166.6344 656.525 1167.15 656.8063Q1167.6813 657.0875 1168.025 657.6188Q1168.3688 658.1344 1168.5563 658.8844Q1168.7438 659.6344 1168.7438 660.91565Q1168.7438 662.4313 1168.4313 663.35315Q1168.1344 664.275 1167.5094 664.79065Q1166.9 665.29065 1165.9469 665.29065Q1164.7125 665.29065 1163.9938 664.4Q1163.15 663.3375 1163.15 660.91565ZM1164.2281 660.91565Q1164.2281 663.025 1164.7281 663.72815Q1165.2281 664.4313 1165.9469 664.4313Q1166.6813 664.4313 1167.1656 663.72815Q1167.6656 663.025 1167.6656 660.91565Q1167.6656 658.79065 1167.1656 658.10315Q1166.6813 657.4 1165.9313 657.4Q1165.2125 657.4 1164.775 658.0094Q1164.2281 658.79065 1164.2281 660.91565ZM1170.15 660.91565Q1170.15 659.3844 1170.4625 658.4625Q1170.775 657.525 1171.3844 657.025Q1172.0094 656.525 1172.9469 656.525Q1173.6344 656.525 1174.15 656.8063Q1174.6813 657.0875 1175.025 657.6188Q1175.3688 658.1344 1175.5563 658.8844Q1175.7438 659.6344 1175.7438 660.91565Q1175.7438 662.4313 1175.4313 663.35315Q1175.1344 664.275 1174.5094 664.79065Q1173.9 665.29065 1172.9469 665.29065Q1171.7125 665.29065 1170.9938 664.4Q1170.15 663.3375 1170.15 660.91565ZM1171.2281 660.91565Q1171.2281 663.025 1171.7281 663.72815Q1172.2281 664.4313 1172.9469 664.4313Q1173.6813 664.4313 1174.1656 663.72815Q1174.6656 663.025 1174.6656 660.91565Q1174.6656 658.79065 1174.1656 658.10315Q1173.6813 657.4 1172.9313 657.4Q1172.2125 657.4 1171.775 658.0094Q1171.2281 658.79065 1171.2281 660.91565Z" fill-rule="nonzero"/></svg>